<!-- Generated by IcoMoon.io -->
<svg version="1.1" xmlns="http://www.w3.org/2000/svg" width="32" height="32" viewBox="0 0 32 32">
<path d="M10.090 13.339c0.261-0.571-1.339-3.641-3.249-6.237-0.114-0.098-0.033-0.212 0.131-0.131 3.314 2.4 5.976 3.347 6.776 3.053 1.273-0.653 2.269-6.922 2.269-6.922 0.016-0.082 0.082-0.082 0.114-0.016 0.441 1.845 1.257 6.106 2.808 7.037 0.8 0.49 4.653-2.237 6.122-3.265 0.114-0.082 0.212 0.016 0.131 0.131 0 0-3.347 5.747-3.037 6.743 0.196 0.604 4.914 1.878 6.841 2.22 0.163 0.033 0.196 0.229 0 0.261-1.763 0.261-6.367 1.094-6.825 2.057-0.49 1.029 1.763 4.98 2.906 6.678 0.098 0.114 0 0.229-0.131 0.131-3.706-2.563-5.649-3.265-6.155-3.069-0.473 0.18-2.122 5.078-2.661 6.873-0.033 0.098-0.098 0.065-0.114 0.016-0.327-1.486-1.845-6.498-2.433-6.71-0.816-0.327-4.98 1.943-6.498 2.857-0.082 0.049-0.18-0.016-0.114-0.114 1.6-2.547 2.971-6.22 2.841-6.825-0.163-0.8-3.673-1.551-6.873-2.057-0.049 0-0.065-0.098 0-0.114 2.759-0.604 6.89-1.992 7.151-2.596zM16.033 19.314c1.682 0 3.38-1.567 3.38-3.38s-1.567-3.38-3.38-3.38-3.38 1.567-3.38 3.249c0 1.943 1.682 3.51 3.38 3.51z"></path>
</svg>
