<!-- Generated by IcoMoon.io -->
<svg version="1.1" xmlns="http://www.w3.org/2000/svg" width="32" height="32" viewBox="0 0 32 32">
<path d="M2.939 9.208c0.49-0.457 0.963-0.931 1.453-1.404 0.082 0.082 0.163 0.147 0.245 0.229 1.11 1.127 2.22 2.237 3.314 3.38 0.114 0.114 0.147 0.327 0.212 0.49 0.016 0.033 0 0.065 0 0.098 0 0.539-0.131 1.143 0.065 1.6 0.18 0.457 0.702 0.767 1.078 1.159 0.914 0.914 1.812 1.845 2.743 2.743 0.131 0.131 0.359 0.229 0.539 0.229 0.62 0.016 1.306 0.163 1.845-0.065 0.522-0.212 0.898-0.8 1.339-1.224 0.604-0.588 1.224-1.175 1.812-1.78 0.114-0.114 0.196-0.327 0.212-0.49 0.016-0.637 0.163-1.339-0.049-1.894-0.229-0.539-0.833-0.931-1.273-1.388-0.849-0.849-1.698-1.698-2.547-2.547-0.131-0.114-0.343-0.147-0.522-0.229-0.016 0-0.016 0-0.033 0-0.588 0-1.241 0.147-1.747-0.065-0.49-0.212-0.833-0.767-1.241-1.192-0.816-0.849-1.649-1.682-2.498-2.563 0.441-0.457 0.865-0.898 1.306-1.339 0.065-0.065 0.196-0.065 0.294-0.065 2.041 0 4.098 0 6.139 0 0.147 0 0.31 0.082 0.424 0.196 2.253 2.269 4.49 4.539 6.727 6.808 0.098 0.098 0.163 0.261 0.163 0.392 0.016 2.024 0.016 4.049 0 6.073 0 0.131-0.082 0.294-0.163 0.392-1.976 2.008-3.951 4-5.943 5.992-0.114 0.114-0.294 0.196-0.457 0.196-2.008 0.016-4 0.016-6.008 0-0.18 0-0.376-0.114-0.506-0.229-2.204-2.204-4.392-4.425-6.596-6.645-0.098-0.098-0.212-0.18-0.31-0.278-0.016-2.155-0.016-4.359-0.016-6.58zM20.327 26.155c-0.816-0.735-1.633-1.469-2.482-2.22 2.041-2.073 4-4.082 6.008-6.122 0.8 0.849 1.6 1.665 2.367 2.465-1.976 1.976-3.984 3.984-5.894 5.878zM22.008 26.465c1.469-1.453 2.971-2.955 4.441-4.424 0.849 0.849 1.747 1.731 2.612 2.58-1.469 1.469-2.971 2.971-4.457 4.441-0.833-0.849-1.731-1.731-2.596-2.596z"></path>
</svg>
