<!-- Generated by IcoMoon.io -->
<svg version="1.1" xmlns="http://www.w3.org/2000/svg" width="32" height="32" viewBox="0 0 32 32">
<path d="M17.649 15.739l4.065 1.714c-0.261 0.653-0.522 1.306-0.784 1.976-0.261 0.653-0.653 1.306-1.045 1.976-0.392 0.653-0.784 1.175-1.175 1.567s-0.784 0.653-1.175 0.653c-0.261 0-0.653-0.131-0.914-0.392s-0.522-0.522-0.784-0.784c-0.392-0.522-0.784-0.914-1.175-1.306s-0.784-0.653-1.175-0.784c-0.392-0.131-0.784-0.261-1.045-0.392-0.392-0.131-0.653-0.131-0.914-0.131-1.045 0-2.106 0.261-3.020 0.653s-1.845 1.045-2.629 1.567c-0.784 0.653-1.437 1.175-1.976 1.714-0.522 0.522-0.784 0.914-0.914 1.045l2.106 1.714c0.261-0.261 0.653-0.653 1.045-1.175s1.045-0.914 1.567-1.306c0.653-0.392 1.176-0.784 1.845-1.175 0.653-0.261 1.306-0.522 1.845-0.392 0.522 0 0.914 0.131 1.175 0.392 0.392 0.261 0.653 0.522 1.045 1.045s0.784 1.045 1.175 1.306c0.392 0.261 0.784 0.522 1.175 0.784 0.392 0.131 0.784 0.261 1.045 0.261 0.392 0 0.653 0 0.914 0 0.522-0.131 0.914-0.261 1.175-0.392 0.653-0.261 1.306-0.784 1.845-1.437s1.045-1.306 1.437-2.106 0.784-1.437 1.045-2.106c0.261-0.653 0.522-1.175 0.653-1.567l4.065 1.714 0.392-7.347 0.522-7.478-6.171 5.518-5.241 4.669z"></path>
</svg>
