<!-- Generated by IcoMoon.io -->
<svg version="1.1" xmlns="http://www.w3.org/2000/svg" width="32" height="32" viewBox="0 0 32 32">
<path d="M28.735 6.841c-1.045 0.539-2.204 0.931-3.249 1.306-1.045-1.567-2.335-2.857-4.033-3.771-1.567-0.914-3.51-1.437-5.322-1.437s-3.641 0.522-5.322 1.437-2.988 2.204-4.033 3.771c-1.176-0.392-2.335-0.784-3.51-1.306 1.045 0.784 2.025 1.665 2.808 2.433-0.784 1.567-1.127 3.151-1.127 4.833 0 2.988 0.914 5.584 2.988 7.673 1.943 2.204 4.425 3.38 7.412 3.51 0.261 1.175 0.522 2.465 0.653 3.771 0.131-1.175 0.392-2.465 0.653-3.771 2.857-0.261 5.322-1.437 7.412-3.51 1.943-2.204 2.988-4.686 2.988-7.673 0-1.812-0.392-3.38-1.175-4.931 0.914-0.784 1.812-1.567 2.857-2.335zM11.314 5.551c1.437-0.784 2.857-1.176 4.555-1.176s3.249 0.392 4.555 1.306c1.437 0.784 2.596 1.812 3.51 3.118-0.653 0.261-1.045 0.294-1.437 0.392-2.041 0.539-4.294 0.653-6.629 0.653s-4.555-0.261-6.629-0.784c-0.522-0.131-1.045-0.261-1.437-0.392 0.914-1.306 2.073-2.335 3.51-3.118zM12.653 23.592c-2.204-0.718-3.51-2.106-4.049-2.694-1.682-1.812-2.596-4.033-2.596-6.629-0.016-1.437 0.294-2.971 0.816-4.261 0 0 0.931 0.931 1.192 1.241 1.159 1.355 2.416 3.053 3.706 5.224 1.698 2.841 2.678 5.486 3.249 7.543-0.571-0.033-1.388-0.131-2.318-0.424zM16 23.184c-1.078-4.131-4.539-9.959-7.984-13.388 6.465 1.159 10.596 1.29 16.18-0.082-4.392 3.412-6.612 8.849-8.196 13.469zM23.167 20.898c-0.294 0.31-0.816 0.849-1.567 1.355-1.78 1.241-3.575 1.633-4.751 1.763 0.914-2.759 1.731-4.931 2.955-7.38 0.865-1.731 2.465-3.624 4.114-5.355 0.343-0.359 0.702-0.718 1.045-1.045 0.522 1.306 0.784 2.596 0.784 4.033 0.016 2.596-0.898 4.816-2.58 6.629z"></path>
</svg>
