<!-- Generated by IcoMoon.io -->
<svg version="1.1" xmlns="http://www.w3.org/2000/svg" width="32" height="32" viewBox="0 0 32 32">
<path d="M25.012 20.18c0.392-1.045 0.522-1.959 0.522-3.135 0-1.306-0.261-2.482-0.784-3.657-0.392-1.175-1.045-2.22-1.959-3.135-0.784-0.914-1.829-1.698-3.004-2.22s-2.351-0.914-3.657-0.914l-0.131-4.18h-1.045l-0.131 4.18c-1.306 0-2.482 0.392-3.657 0.914-1.175 0.653-2.22 1.306-3.004 2.22s-1.567 1.959-1.959 3.135c-0.522 1.045-0.784 2.351-0.784 3.657s0.261 2.482 0.653 3.657c0.522 1.045 1.175 2.090 1.959 3.004 0.914 0.914 1.829 1.698 2.873 2.22 1.175 0.522 2.22 0.914 3.527 1.045v2.090l2.090-0.653v-1.437c0.784 0 1.437-0.261 2.090-0.392s1.306-0.392 1.829-0.784l1.306 0.914-0.914-1.175c0.914-0.522 1.698-1.306 2.351-2.090s1.175-1.698 1.567-2.743l1.829-0.131-1.567-0.392zM8.033 17.045l5.355 3.657-2.351 3.396 3.396-1.698 0.131 0.522v3.396c-1.045-0.131-2.090-0.392-3.004-0.914-1.045-0.522-1.829-1.175-2.482-1.959-0.784-0.784-1.306-1.698-1.698-2.743s-0.653-2.090-0.653-3.265 0.261-2.22 0.653-3.265 0.914-1.959 1.698-2.743c0.653-0.914 1.567-1.567 2.482-1.959 0.914-0.522 1.959-0.784 3.135-0.914l-0.392 10.057-6.269-1.567zM20.963 14.302l-4.571 3.396-0.392-9.273c1.175 0.131 2.351 0.392 3.265 0.914 1.045 0.522 1.829 1.175 2.612 1.959 0.653 0.784 1.306 1.698 1.698 2.743s0.653 2.090 0.653 3.265c0 1.045-0.131 1.959-0.522 2.873l-6.008-1.045 3.265-4.833zM23.445 20.833c-0.392 0.784-0.784 1.567-1.437 2.22-0.522 0.653-1.175 1.175-1.959 1.698l-2.482-3.396 5.878-0.522zM19.527 25.012c-0.522 0.392-0.914 0.522-1.437 0.653-0.392 0.261-0.914 0.261-1.567 0.392v-3.265l3.004 2.22z"></path>
</svg>
