<!-- Generated by IcoMoon.io -->
<svg version="1.1" xmlns="http://www.w3.org/2000/svg" width="32" height="32" viewBox="0 0 32 32">
<path d="M15.951 4.441c-1.224 0-2.4-0.131-3.559-0.408-1.094-0.278-2.188-0.62-3.282-1.094 0.963 0.686 1.78 1.437 2.596 2.318 0.751 0.816 1.437 1.78 2.057 2.808 0.555 1.029 1.029 2.057 1.437 3.216 0.408 1.094 0.62 2.318 0.751 3.494 0.131-1.159 0.343-2.318 0.751-3.494 0.343-1.159 0.882-2.253 1.437-3.216 0.62-1.029 1.306-1.91 2.057-2.808 0.816-0.882 1.649-1.649 2.596-2.318-1.029 0.473-2.122 0.816-3.282 1.094-1.159 0.212-2.318 0.343-3.559 0.408zM16.049 18.743c-1.224 0-2.4-0.131-3.559-0.408-1.094-0.278-2.188-0.62-3.282-1.094 0.963 0.686 1.78 1.437 2.596 2.318 0.751 0.816 1.437 1.78 2.057 2.808 0.555 1.029 1.029 2.057 1.437 3.216 0.408 1.094 0.62 2.318 0.751 3.494 0.131-1.159 0.343-2.318 0.751-3.494 0.343-1.159 0.882-2.253 1.437-3.216 0.62-1.029 1.306-1.91 2.057-2.808 0.816-0.882 1.649-1.649 2.596-2.318-1.029 0.473-2.122 0.816-3.282 1.094-1.175 0.196-2.335 0.327-3.559 0.408z"></path>
</svg>
