<!-- Generated by IcoMoon.io -->
<svg version="1.1" xmlns="http://www.w3.org/2000/svg" width="32" height="32" viewBox="0 0 32 32">
<path d="M17.584 13.257h-3.331l-0.98 1.763h5.29l-0.98-1.763zM13.061 12.539l-1.698-2.808h-1.959l2.612 4.571 1.045-1.763zM22.482 9.665h-2.024l-1.633 2.808 1.045 1.763 2.612-4.571zM14.302 11.82h3.331l1.633-2.873-1.633-2.873h-3.331l-1.633 2.873 1.633 2.873zM16.931 7.249l0.98 1.698-0.98 1.698h-1.959l-0.98-1.698 0.98-1.698h1.959zM9.404 8.229h1.959l1.633-2.808-0.98-1.763-2.612 4.571zM18.825 5.42l1.633 2.808h2.024l-2.612-4.571-1.045 1.763zM14.302 4.702h3.331l0.98-1.763h-5.29l0.98 1.763zM17.698 27.298h-3.331l-0.98 1.763h5.29l-0.98-1.763zM13.175 26.58l-1.698-2.808h-1.959l2.612 4.571 1.045-1.763zM22.596 23.706h-2.024l-1.633 2.808 1.045 1.763 2.612-4.571zM14.416 25.861h3.331l1.633-2.873-1.633-2.873h-3.331l-1.633 2.873 1.633 2.873zM17.045 21.29l0.98 1.698-0.98 1.698h-1.959l-0.98-1.698 0.98-1.698h1.959zM9.518 22.269h1.959l1.633-2.808-0.98-1.763-2.612 4.571zM18.939 19.461l1.633 2.808h2.024l-2.612-4.571-1.045 1.763zM14.416 18.743h3.331l0.98-1.763h-5.29l0.98 1.763z"></path>
</svg>
