<!-- Generated by IcoMoon.io -->
<svg version="1.1" xmlns="http://www.w3.org/2000/svg" width="32" height="32" viewBox="0 0 32 32">
<path d="M15.216 7.233l-5.012-2.416 3.559 3.918-3.265 1.698 3.331 0.539-0.669 4.098 3.086-3.135 2.906 2.906-0.604-3.918 3.265-0.539-2.906-1.747 2.057-2.906-3.445 0.898-1.322-3.69-0.98 4.294zM14.547 12.196l0.359-2.057-1.698-0.245 1.878-1.029-1.453-1.567 2.122 1.029 0.539-2.237 0.604 1.633 1.812-0.49-1.159 1.633 1.633 0.963-1.747 0.31 0.31 1.992-1.567-1.502-1.633 1.567zM15.216 21.208l-5.012-2.416 3.559 3.918-3.265 1.698 3.331 0.539-0.669 4.098 3.086-3.135 2.906 2.906-0.604-3.918 3.265-0.539-2.906-1.747 2.057-2.906-3.445 0.898-1.322-3.69-0.98 4.294zM14.547 26.155l0.359-2.057-1.698-0.245 1.878-1.029-1.453-1.567 2.122 1.029 0.539-2.237 0.604 1.633 1.812-0.49-1.159 1.633 1.633 0.963-1.747 0.31 0.31 1.992-1.567-1.502-1.633 1.567z"></path>
</svg>
