<!-- Generated by IcoMoon.io -->
<svg version="1.1" xmlns="http://www.w3.org/2000/svg" width="32" height="32" viewBox="0 0 32 32">
<path d="M29.078 14.971c0.033 0.767 0.098 3.135-1.078 5.731-2.367 5.273-8.163 7.869-12.327 7.918-0.098 0-0.31 0-0.588 0-1.551-0.049-4.996-0.441-7.984-3.086-2.661-2.351-3.592-5.257-3.918-6.792-0.62-2.906-0.082-5.29 0.261-6.4 0.098-0.343 1.714-5.437 6.531-7.837 2.808-1.404 5.812-1.437 6.4-1.437 0 0 0 0 0 0 0.996 0.016 2.547 0.147 4.31 0.784 0.98 0.359 4.898 1.927 7.053 6.139 1.061 2.090 1.29 3.984 1.339 4.98zM15.869 18.939c1.567 0 3.396-1.11 3.396-3.2 0-1.829-1.437-3.265-3.396-3.265-1.665 0-3.265 1.518-3.265 3.265 0 2.22 1.878 3.2 3.265 3.2zM16.392 5.176c0.147 0.816 0.408 1.845 0.914 2.971 0.278 0.588 0.571 1.094 0.865 1.535 0.816-0.163 1.747-0.425 2.759-0.8 0.8-0.294 1.502-0.637 2.122-0.963-3.004-1.992-3.167-2.008-6.661-2.743zM7.902 23.053v0c0.392-0.653 0.653-1.175 0.914-1.829 0.392-0.914 0.653-1.698 0.784-2.743v-0.131c-1.175-0.784-2.482-1.437-3.788-1.829-0.131 0-0.392-0.131-0.522-0.131 0.016 2.612 0.914 4.833 2.612 6.661zM7.788 8.686c-0.506 0.588-1.127 1.437-1.633 2.547-0.751 1.649-0.931 3.167-0.98 4.114 0.898-0.294 1.91-0.702 2.971-1.29 0.49-0.261 0.931-0.539 1.339-0.8-0.343-1.616-1.029-3.298-1.698-4.571zM15.249 5.176c-0.833 0.049-2.057 0.229-3.429 0.784-1.453 0.588-2.498 1.388-3.135 1.959 1.469 1.371 3.527 1.845 4.833 1.959 1.094-1.322 1.437-2.645 1.731-4.702zM16.375 26.58c0.8-0.033 1.959-0.163 3.249-0.653 1.616-0.604 2.743-1.486 3.412-2.090-0.261-0.294-0.62-0.637-1.094-0.931-1.404-0.882-2.857-0.833-3.478-0.767-1.029 1.11-1.861 2.694-2.090 4.441zM21.682 18.58c0.327 2.073 1.012 3.086 2.139 4.473 0.571-0.669 1.322-1.714 1.91-3.135 0.571-1.404 0.767-2.661 0.833-3.527-2.041 0.555-3.314 0.816-4.882 2.188zM23.82 8.686c-0.343 0.392-0.8 0.98-1.143 1.78-0.522 1.208-0.637 1.78-0.702 3.2 1.355 0.996 2.955 1.29 4.588 1.682-0.571-2.4-1.29-4.359-2.743-6.661zM15.216 26.58v0c-0.261-0.784-0.522-1.567-0.784-2.351s-0.653-1.437-1.175-2.090c0 0-0.033-0.065-0.049-0.082-0.131 0.016-0.212 0.049-0.343 0.082-1.437 0.261-2.841 0.833-4.147 1.486 0 0-0.065 0.033-0.163 0.082v0c0.392 0.392 0.914 0.653 1.437 1.045 0.914 0.522 1.829 1.045 2.873 1.306 0.522 0.131 1.175 0.261 1.829 0.392 0.261 0.131 0.392 0.131 0.522 0.131z"></path>
</svg>
