<!-- Generated by IcoMoon.io -->
<svg version="1.1" xmlns="http://www.w3.org/2000/svg" width="32" height="32" viewBox="0 0 32 32">
<path d="M3.216 25.747c0.31-0.229 0.261-0.18 0.49-0.473 0 0 0.131-0.131 0.196-0.31 0.392-0.653 0.784-1.175 1.176-1.812 0.392-0.653 0.653-1.404 0.784-2.041v-0.033c-0.131-0.522-0.212-0.865-0.261-1.437-0.049-0.506-0.033-1.029 0-1.567 0.082-1.518 0.392-2.857 0.914-4.163 1.306-2.727 3.771-4.816 6.629-5.453 0.131 0 0.261-0.131 0.392-0.261 0.653-0.784 1.175-1.567 1.567-2.465 0.131-0.261 0.261-0.522 0.392-0.914 0.131-0.261 0.196-0.653 0.261-1.045 0.049-0.278 0.082-0.376 0.131-0.653v0c0.131 0.914 0.522 1.682 0.914 2.596s0.914 1.682 1.567 2.465l0.131 0.131c1.175 0.392 2.335 0.914 3.38 1.567 2.041 1.584 3.331 3.527 3.984 5.992 0.131 0.522 0.261 1.045 0.261 1.567s0 1.175 0 1.682c0 0.653-0.131 1.175-0.261 1.812 0 0.131 0 0.131 0 0.261 0.392 0.914 0.784 1.812 1.437 2.727 0.131 0.261 0.375 0.539 0.522 0.784 0.261 0.392 0.653 0.784 1.175 1.175v0c-0.653-0.261-1.42-0.392-2.073-0.522-0.522-0.033-0.898-0.065-1.551-0.033-0.604 0.049-1.192 0.163-1.829 0.294-0.098 0.065-0.033 0-0.131 0.131-0.392 0.522-0.914 0.914-1.437 1.306-1.175 0.914-2.596 1.437-4.033 1.682-0.784 0.131-1.388 0.18-2.335 0.131-2.596-0.131-5.143-1.306-6.971-3.249-0.016 0-0.016 0-0.049 0-0.914-0.131-1.6-0.196-2.596-0.18-0.571 0.065-1.224 0.065-2.057 0.261-0.327 0.098-0.751 0.212-0.947 0.229 0.082-0.082 0.229-0.18 0.229-0.18zM13.894 19.347c0.049-0.033 0.049 0 0.016 0.033-0.522 0.392-0.914 0.914-1.306 1.437-0.653 0.914-1.175 1.943-1.682 2.988-0.131 0.261-0.131 0.522-0.261 0.784 0.131 0.131 0.261 0.261 0.392 0.392 1.306 0.914 2.596 1.437 4.163 1.567 0.653 0 1.437 0 2.073-0.131 1.306-0.261 2.465-0.784 3.51-1.567 0 0 0 0 0.131-0.131v0c-0.392-1.175-0.914-2.204-1.567-3.249-0.392-0.653-0.914-1.306-1.567-1.812v0h0.131c0.784 0.261 1.682 0.392 2.596 0.522 0.653 0 1.306 0 1.812-0.131 0.522-0.131 0.914-0.131 1.437-0.261 0.082-0.147 0.082-0.212 0.131-0.392 0.131-0.784 0.131-1.567 0-2.335-0.261-1.175-0.653-2.335-1.437-3.38-0.914-1.306-2.204-2.204-3.641-2.857v0c-1.437 1.567-2.465 3.38-2.857 5.453 0-0.261-0.082-0.522-0.131-0.784-0.049-0.294-0.131-0.522-0.261-0.784-0.653-1.437-1.437-2.727-2.465-3.902 0 0 0 0.131 0 0-2.988 1.045-5.976 4.294-5.192 8.833 0.131 0.049 0.359 0.098 0.522 0.131 1.045 0.261 2.073 0.261 3.249 0.131 0.669 0 1.42-0.163 2.204-0.555z"></path>
</svg>
