<!-- Generated by IcoMoon.io -->
<svg version="1.1" xmlns="http://www.w3.org/2000/svg" width="32" height="32" viewBox="0 0 32 32">
<path d="M12.669 25.714c-1.763-0.849-2.253-1.061-3.396-2.024-0.767 0.49-2.596 1.682-2.596 1.682s1.273-2.041 1.698-2.694c-1.159-1.453-1.665-2.090-2.073-3.363l-3.363-3.363 3.363-3.363c0.882-1.91 0.882-1.91 2.073-3.363l-1.682-2.58c0.865 0.555 1.714 1.127 2.58 1.682 2.204-1.551 2.269-1.437 4.343-2.449l2.433-3.004c0 0 2.106 2.531 2.776 3.265 1.78 0.637 1.78 0.637 3.837 2.122 0.735-0.457 2.645-1.616 2.645-1.616s-1.257 1.927-1.714 2.612c1.371 1.845 1.437 1.992 2.171 4.016 0.212 0.212 2.22 1.763 3.298 2.661-1.322 1.094-1.845 1.453-2.971 2.384l-2.465 4.343c0.522 0.898 1.159 1.682 1.682 2.58-0.898-0.555-1.682-1.11-2.58-1.682-1.159 1.175-1.796 1.469-3.363 2.073-0.816 0.882-3.363 3.494-3.363 3.494l-3.331-3.412zM13.012 16.18c-1.29-1.812-2.465-3.624-3.755-5.437-2.841 3.363-2.465 8.147 0 10.857 1.159-1.796 2.465-3.608 3.755-5.42zM10.416 9.584c1.812 1.159 3.624 2.465 5.437 3.624 1.812-1.29 3.625-2.465 5.437-3.624-3.102-2.71-7.771-2.71-10.873 0zM10.416 22.776c1.029 0.784 2.073 1.42 3.363 1.682 1.682 0.392 3.233 0.392 4.784-0.131 1.029-0.392 1.943-0.898 2.71-1.551-1.812-1.29-3.625-2.465-5.437-3.625-1.796 1.159-3.608 2.465-5.42 3.625zM18.825 16.18c1.29 1.812 2.465 3.625 3.755 5.437 2.465-2.971 2.71-7.755 0-10.857-1.29 1.796-2.465 3.608-3.755 5.42z"></path>
</svg>
