<!-- Generated by IcoMoon.io -->
<svg version="1.1" xmlns="http://www.w3.org/2000/svg" width="32" height="32" viewBox="0 0 32 32">
<path d="M2.955 14.988c0-0.261 0.131-0.653 0.131-0.914 0.261-1.698 0.914-3.265 1.698-4.686 0 0 0-0.131 0.131-0.131 2.351 2.22 4.555 4.555 6.906 6.775-2.351 2.351-4.555 4.686-6.906 7.037-0.392-0.784-0.784-1.567-1.045-2.351-0.392-1.045-0.555-2.073-0.816-3.118-0.033-0.082-0.049-0.327-0.082-0.522-0.049-0.767-0.016-1.306-0.016-2.090zM9.078 4.947c4.18-2.612 9.649-2.743 13.812 0-2.22 2.351-4.555 4.555-6.776 6.906-2.465-2.351-4.686-4.555-7.037-6.906zM15.984 20.196c2.22 2.351 4.555 4.555 6.775 6.906-3.004 2.612-10.563 2.612-13.682 0 2.351-2.22 4.571-4.555 6.906-6.906zM27.2 22.939c-2.351-2.22-4.555-4.555-7.037-6.776 2.351-2.351 4.555-4.555 6.906-6.906 2.612 3.902 2.612 9.502 0.131 13.682z"></path>
</svg>
