<!-- Generated by IcoMoon.io -->
<svg version="1.1" xmlns="http://www.w3.org/2000/svg" width="32" height="32" viewBox="0 0 32 32">
<path d="M3.135 3.51c0.261-0.261 0.049-0.049 0.294-0.294 0.131-0.131 0.261-0.261 0.522 0 1.943 1.29 3.755 2.596 5.698 3.886 0.131 0.131 0.261 0.131 0.261 0.131 3.886-2.335 7.771-2.465 11.657 0 0.392-0.261 0.914-0.653 1.42-0.914 1.551-1.029 3.102-2.073 4.669-3.102 0.261-0.131 0.392-0.131 0.522 0 0.261 0.261 0.392 0.522 0.653 0.784-0.065 0.147-0.131 0.261-0.131 0.261-1.29 1.943-2.596 3.755-3.755 5.698-0.131 0.261-0.131 0.392 0 0.522 2.204 3.624 2.073 7.38 0 11.135-0.131 0.261-0.131 0.392 0 0.522 1.29 1.812 2.596 3.755 3.886 5.567 0.131 0.131 0.131 0.261 0 0.522-0.653 0.914-0.653 0.914-1.42 0.261-1.812-1.159-3.494-2.335-5.306-3.494-0.131-0.131-0.261-0.131-0.392 0-1.812 1.159-3.886 1.551-6.090 1.551-1.812-0.131-3.494-0.522-5.045-1.551-0.131-0.131-0.261 0-0.392 0-1.943 1.29-3.886 2.596-5.698 3.886-0.261 0.131-0.392 0.131-0.653 0-0.131-0.261-0.392-0.392-0.653-0.653 0-0.131 0-0.131 0-0.261 0 0 0.131 0 0.131-0.131 1.29-1.943 2.596-3.886 3.886-5.829 0.131-0.131 0-0.261 0-0.392-2.073-3.755-2.204-7.38 0-11.135 0.131-0.261 0.131-0.261 0-0.522-1.29-1.943-2.465-3.886-3.755-5.829l-0.131-0.131c-0.261-0.31-0.229-0.425-0.18-0.49zM7.053 24.571c0.131 0 0.131 0 0 0 0.653-0.261 1.159-0.653 1.682-1.029 1.29-0.914 2.596-1.812 4.016-2.596 1.812-1.029 3.624-1.029 5.567-0.131 1.551 0.784 2.971 1.812 4.278 2.727 0.522 0.392 1.029 0.784 1.551 1.029 0-0.131 0-0.131 0-0.261-0.653-1.029-1.29-2.073-1.943-2.971-0.653-0.914-1.159-1.943-1.682-2.841-0.522-1.029-0.784-2.204-0.522-3.363 0.131-0.914 0.653-1.812 1.029-2.596 0.653-1.029 1.42-2.073 2.073-3.102 0.392-0.653 0.784-1.29 1.159-1.943-0.131 0-0.261 0-0.261 0.131-1.42 1.029-2.971 1.943-4.408 2.971-0.914 0.522-1.812 1.029-2.841 1.159-1.42 0.261-2.841 0-4.016-0.784-1.42-0.784-2.727-1.682-4.016-2.596-0.522-0.392-1.029-0.653-1.551-1.029 0 0.131 0 0.261 0.131 0.261 1.029 1.551 2.073 3.233 3.102 4.784 0.261 0.522 0.522 1.029 0.784 1.551 0.392 0.784 0.522 1.682 0.392 2.596-0.131 1.159-0.653 2.073-1.159 2.971-0.784 1.29-1.682 2.596-2.465 3.886-0.375 0.392-0.637 0.784-0.898 1.175z"></path>
</svg>
