<!-- Generated by IcoMoon.io -->
<svg version="1.1" xmlns="http://www.w3.org/2000/svg" width="32" height="32" viewBox="0 0 32 32">
<path d="M2.955 14.955c0.131-0.522 0.131-1.045 0.261-1.567 1.437-6.776 7.429-10.825 13.698-10.433 2.090 0.131 4.049 0.784 5.861 1.829l0.131 0.131c-0.131 0.131-0.131 0.131-0.131 0.261-1.045 1.045-2.090 2.090-3.004 3.135-0.131 0.131-0.261 0.261-0.392 0.131-3.004-1.306-5.861-0.784-8.473 1.175-2.22 1.698-4.049 5.339-2.612 9.127 0.261 0.522 0.131 0.914-0.261 1.306-0.914 0.914-1.829 1.959-2.873 2.873-0.131-0.131-0.131-0.261-0.261-0.392-0.914-1.698-1.698-3.396-1.829-5.339 0-0.131 0-0.131 0-0.261-0.114-0.539-0.114-1.322-0.114-1.976zM9.078 26.955c1.175-1.175 2.22-2.22 3.396-3.396 0.131-0.131 0.261 0 0.392 0 2.090 0.784 4.049 0.914 6.122 0.131 4.18-1.567 6.253-5.861 4.833-10.041-0.131-0.392-0.392-0.784-0.261-1.045s0.522-0.522 0.784-0.784c0.914-0.914 1.829-1.829 2.743-2.743 1.175 1.959 1.959 4.18 1.959 6.384 0.131 3.396-0.914 6.514-3.135 9.127-5.094 5.633-12.522 5.371-16.833 2.367z"></path>
</svg>
