<!-- Generated by IcoMoon.io -->
<svg version="1.1" xmlns="http://www.w3.org/2000/svg" width="32" height="32" viewBox="0 0 32 32">
<path d="M2.939 15.363c0.18-0.588 0.31-1.192 0.571-1.747 0.833-1.796 2.253-3.037 3.918-4.016 2.155-1.273 4.457-2.106 6.939-2.465 1.829-0.261 3.608-0.033 5.371 0.457 2.041 0.555 3.967 1.404 5.714 2.612 1.11 0.767 2.090 1.698 2.776 2.89 1.127 1.943 1.143 3.918 0 5.861-0.947 1.6-2.351 2.743-3.935 3.641-1.959 1.11-4.065 1.845-6.286 2.22-1.992 0.343-3.935 0.131-5.845-0.408-2.4-0.669-4.653-1.665-6.563-3.314-1.045-0.914-1.861-1.992-2.351-3.298-0.131-0.359-0.196-0.751-0.294-1.127-0.016-0.441-0.016-0.882-0.016-1.306zM15.984 9.257c-3.673-0.033-6.71 2.971-6.743 6.678s2.922 6.743 6.596 6.776c3.788 0.033 6.841-2.922 6.857-6.645 0.049-3.755-2.939-6.776-6.71-6.808zM19.167 15.918c0.131 1.273-0.751 2.531-2.122 3.069-1.257 0.49-2.759 0.049-3.641-1.078-0.849-1.094-0.849-2.661-0.033-3.788s2.286-1.551 2.922-1.257c-0.522 0.865-0.522 1.731 0.114 2.531 0.767 0.947 1.714 1.029 2.759 0.522z"></path>
</svg>
