<!-- Generated by IcoMoon.io -->
<svg version="1.1" xmlns="http://www.w3.org/2000/svg" width="32" height="32" viewBox="0 0 32 32">
<path d="M16.718 2.939c0.065 0.816 0.114 1.633 0.18 2.449 0.18 2.253 0.359 4.49 0.539 6.743 0.016 0.294 0.114 0.441 0.408 0.539 1.976 0.669 3.412 1.959 4.082 3.951 1.388 4.114-1.616 8.327-5.78 8.392-3.69 0.065-6.122-2.71-6.367-5.796-0.016-0.114-0.033-0.212-0.049-0.327 0-0.18 0-0.375 0-0.555 0.016-0.098 0.033-0.196 0.049-0.294 0.163-0.637 0.229-1.322 0.49-1.927 0.751-1.796 2.122-2.955 4-3.51 0.131-0.033 0.278-0.049 0.278-0.261 0.114-1.698 0.245-3.412 0.392-5.11 0.114-1.437 0.261-2.873 0.392-4.294 0.457 0 0.914 0 1.388 0zM14.433 13.322c-0.033 0.016-0.098 0.016-0.147 0.049-0.996 0.473-1.78 1.192-2.302 2.155-0.506 0.931-0.653 1.91-0.425 2.955 0.033 0.163 0.098 0.229 0.278 0.212 0.327-0.049 0.653-0.082 0.996-0.114 0.686-0.082 1.371-0.163 2.090-0.245-0.131-0.833-0.31-1.665-0.392-2.498s-0.082-1.682-0.098-2.514zM17.502 13.306c0.016 0.131 0.033 0.229 0.033 0.327 0 0.669 0.049 1.355 0 2.008s-0.229 1.306-0.343 1.959c-0.033 0.229-0.049 0.473-0.082 0.718 1.11 0.131 2.188 0.245 3.265 0.375 0.588-2.041-0.865-4.767-2.873-5.388zM14.384 21.763c0-0.849 0-1.633 0-2.465-0.882-0.082-1.747-0.18-2.678-0.278 0.588 1.273 1.371 2.22 2.678 2.743zM17.649 21.763c1.273-0.588 2.155-1.453 2.645-2.792-0.914 0.114-1.796 0.229-2.645 0.343 0 0.833 0 1.616 0 2.449zM14.4 25.682c1.078 0.294 2.122 0.278 3.184 0 0 1.143-0.065 2.237-0.653 3.233-0.033 0.065-0.131 0.131-0.212 0.131-0.473 0.016-0.963 0.016-1.437 0-0.082 0-0.212-0.098-0.261-0.18-0.425-0.718-0.604-1.502-0.588-2.318 0.016-0.278-0.016-0.555-0.033-0.865z"></path>
</svg>
