<!-- Generated by IcoMoon.io -->
<svg version="1.1" xmlns="http://www.w3.org/2000/svg" width="32" height="32" viewBox="0 0 32 32">
<path d="M15.494 5.829c-1.355 3.102-2.71 6.188-4.065 9.322-0.702-0.261-1.371-0.49-2.024-0.784-0.441-0.196-0.833-0.229-1.273 0-0.457 0.245-0.98 0.376-1.453 0.604-0.653 0.327-1.339 0.18-2.024 0.212 0-0.131-0.016-0.245-0.016-0.343 0-1.698 0-3.396 0-5.094 0-0.229 0.065-0.359 0.278-0.473 3.608-2.073 7.2-4.163 10.792-6.253 0.196-0.114 0.343-0.114 0.555 0 3.608 2.090 7.216 4.18 10.825 6.253 0.147 0.082 0.261 0.163 0.261 0.376-0.016 1.943 0 3.869 0 5.812 0 0.065-0.016 0.131-0.016 0.212-0.114 0-0.212 0.016-0.327 0.016-1.339 0-2.678 0-4.016 0-0.18 0-0.359-0.033-0.522-0.098-0.882-0.359-1.763-0.718-2.645-1.094-0.114-0.049-0.212-0.082-0.359-0.131-0.392 0.947-0.784 1.861-1.175 2.775-0.016 0-0.049-0.016-0.065-0.016-0.882-3.755-1.763-7.527-2.645-11.282 0 0-0.033-0.016-0.082-0.016zM17.208 26.367c1.208-3.004 2.416-6.024 3.625-9.061 0.441 0.18 0.833 0.343 1.241 0.49 0.18 0.065 0.375 0.098 0.555 0.114 1.437 0.016 2.873 0 4.294 0 0.131 0 0.245 0 0.392 0 0.016 0.131 0.016 0.212 0.016 0.31 0 1.355 0 2.694 0 4.049 0 0.229-0.082 0.343-0.261 0.441-3.625 2.090-7.249 4.18-10.857 6.269-0.18 0.114-0.31 0.098-0.49 0-3.608-2.106-7.233-4.196-10.841-6.286-0.114-0.065-0.245-0.212-0.245-0.327-0.016-1.535-0.016-3.053-0.016-4.588 0-0.033 0.016-0.082 0.033-0.163 0.571 0 1.127-0.016 1.698 0 0.359 0.016 0.669-0.065 0.98-0.229 0.441-0.229 0.898-0.571 1.355-0.588s0.914 0.31 1.371 0.49c0.947 0.375 1.894 0.767 2.906 1.159 0.392-0.947 0.784-1.894 1.175-2.825 0.016 0 0.049 0 0.065 0 0.947 3.575 1.91 7.135 2.857 10.71 0.082 0.016 0.114 0.016 0.147 0.033z"></path>
</svg>
