<!-- Generated by IcoMoon.io -->
<svg version="1.1" xmlns="http://www.w3.org/2000/svg" width="32" height="32" viewBox="0 0 32 32">
<path d="M2.939 17.894c0.114-0.767 0.229-1.551 0.359-2.318 0.196-1.224 0.473-2.416 0.98-3.559 0.473-1.061 1.127-1.976 1.976-2.759 1.306-1.208 2.775-2.204 4.392-2.939 1.714-0.784 3.445-1.567 5.273-2.041 0.196-0.049 0.327-0.016 0.473 0.114 1.567 1.469 3.151 2.922 4.718 4.392 0.098 0.098 0.196 0.245 0.229 0.392 0.473 2.090 0.931 4.196 1.404 6.286 0.049 0.196 0 0.327-0.163 0.441-0.588 0.424-0.816 0.441-1.42 0.033-0.62-0.425-1.029-1.012-1.371-1.649-0.18-0.327-0.359-0.653-0.457-1.012-0.229-0.816-0.718-1.404-1.339-1.959-1.273-1.127-2.498-2.302-3.739-3.461-0.082-0.082-0.18-0.147-0.31-0.278-0.033 0.457-0.049 0.849-0.065 1.241-0.065 1.306-0.114 2.612-0.18 3.918-0.016 0.229-0.082 0.473-0.18 0.669-1.143 2.269-2.286 4.539-3.445 6.792-0.114 0.212-0.098 0.375 0.033 0.571 0.441 0.653 0.849 1.322 1.273 1.976 0.049 0.082 0.114 0.163 0.212 0.294 0.571-1.159 1.127-2.286 1.682-3.412 0.033 0 0.049 0 0.082 0.016 0.229 2.678 0.457 5.371 0.686 8.082-0.147 0.016-0.278 0.016-0.392 0.016-1.551 0-3.118 0.016-4.669-0.016-0.18 0-0.425-0.098-0.555-0.229-1.682-1.682-3.347-3.363-5.012-5.061-0.114-0.131-0.196-0.343-0.212-0.522-0.016-0.343 0.033-0.686 0.033-1.029 0-0.196 0.065-0.261 0.261-0.31 0.735-0.163 1.453-0.327 2.269-0.522-0.245-0.163-0.425-0.278-0.588-0.375-0.735-0.457-1.469-0.914-2.204-1.355-0.033-0.147-0.033-0.278-0.033-0.424zM15.527 18.988c4.31 0 8.555 0 12.849 0 0.016 0.098 0.033 0.196 0.033 0.31 0 0.555-0.033 1.127 0.016 1.682 0.049 0.506-0.114 0.865-0.49 1.208-0.278 0.245-0.522 0.359-0.898 0.359-3.625-0.016-7.249 0-10.873 0-0.147 0-0.278 0-0.49 0-0.065-1.208-0.098-2.367-0.147-3.559zM16.18 27.608c-0.098-0.898-0.196-1.747-0.294-2.645 3.135 0 6.253 0 9.42 0 0 0.62 0.016 1.241 0 1.878-0.016 0.261-0.751 0.784-1.045 0.784-2.367 0-4.735 0-7.086 0-0.327-0.016-0.653-0.016-0.996-0.016zM25.241 16.686c-0.261-1.192-0.522-2.367-0.784-3.559 1.535 0 3.037 0 4.588 0 0 0.686-0.049 1.388 0.016 2.057 0.065 0.735-0.506 1.012-0.865 1.453-0.016 0.033-0.082 0.033-0.131 0.033-0.931 0.016-1.878 0.016-2.825 0.016zM23.167 7.478c1.404 0 2.841 0 4.31 0 0 0.816 0.065 1.633-0.033 2.416-0.049 0.376-0.424 0.702-0.653 1.029-0.033 0.049-0.147 0.049-0.229 0.049-0.751 0-1.518 0-2.269 0-0.212 0-0.278-0.082-0.327-0.278-0.163-0.833-0.343-1.665-0.539-2.498-0.065-0.229-0.18-0.457-0.261-0.718zM18.694 16.669c-1.061 0-2.073 0-3.135 0 0.016-1.127-0.131-2.253 0.31-3.331 0.016-0.033 0.016-0.065 0.049-0.098 0.18-0.18 1.11-0.033 1.176 0.212 0.278 1.175 0.898 2.188 1.6 3.216z"></path>
</svg>
