<!-- Generated by IcoMoon.io -->
<svg version="1.1" xmlns="http://www.w3.org/2000/svg" width="32" height="32" viewBox="0 0 32 32">
<path d="M3.069 21.388c0.131-0.131 0.131-0.131 0.261-0.261 2.857-3.771 5.714-7.543 8.571-11.314 0-0.131 0.131-0.131 0.131-0.261 2.596 2.204 5.192 4.425 7.935 6.498 2.596-2.204 5.322-4.425 7.935-6.498 0.392 0.392 0.784 0.653 1.175 1.045-2.988 3.902-6.106 7.804-9.094 11.82-2.596-2.204-5.192-4.424-7.935-6.498-2.596 2.204-5.192 4.425-7.935 6.498-0.261-0.261-0.653-0.522-0.914-0.784-0.131 0-0.131-0.131-0.261-0.131 0.131 0.016 0.131-0.114 0.131-0.114z"></path>
</svg>
