<!-- Generated by IcoMoon.io -->
<svg version="1.1" xmlns="http://www.w3.org/2000/svg" width="32" height="32" viewBox="0 0 32 32">
<path d="M28.914 16.033c0-3.478-1.29-6.531-3.869-9.159s-5.584-3.935-9.012-3.935c-3.51 0-6.563 1.29-9.127 3.886s-3.853 5.665-3.853 9.192c0 3.494 1.29 6.547 3.853 9.143s5.567 3.886 9.029 3.886c3.494 0 6.531-1.29 9.11-3.869s3.869-5.6 3.869-9.143zM25.143 22.808c-2.008 2.727-4.653 4.261-7.951 4.62v-0.816c0.735-0.082 1.437-0.245 2.139-0.473l-0.408-1.127c0.343-0.147 1.486-0.833 3.461-2.041l0.816 0.849c0.457-0.457 0.882-0.947 1.257-1.469l0.686 0.457zM27.331 16c0 1.584-0.343 3.167-1.012 4.702l-0.686-0.408c0.294-0.686 0.506-1.404 0.653-2.139l-1.159-0.212c0.098-0.457 0.163-0.914 0.163-1.388 0-0.131-0.065-1.012-0.196-2.645l1.159-0.31c-0.131-0.62-0.343-1.241-0.62-1.829l0.718-0.441c0.669 1.535 0.98 3.086 0.98 4.669zM14.808 26.612v0.849c-3.314-0.359-5.959-1.91-7.951-4.653l0.653-0.408c0.441 0.571 0.914 1.094 1.437 1.6l0.816-0.882c0.882 0.686 2.041 1.339 3.478 1.943l-0.343 1.192c0.637 0.18 1.257 0.294 1.91 0.359zM23.347 18.547c-0.294 0.898-0.767 1.731-1.437 2.514l-2.727-2.286c-0.604 0.735-1.388 1.208-2.351 1.42l0.718 3.543c-0.522 0.098-1.029 0.163-1.535 0.163-0.473 0-0.931-0.033-1.355-0.098l0.62-3.576c-0.947-0.196-1.747-0.653-2.416-1.388l-2.661 2.416c-0.653-0.751-1.143-1.584-1.469-2.482l3.331-1.257c-0.147-0.473-0.212-0.98-0.212-1.469 0-0.473 0.065-0.947 0.196-1.388l-3.396-1.094c0.343-0.947 0.816-1.796 1.437-2.547l2.694 2.318c0.653-0.767 1.437-1.257 2.384-1.437l-0.718-3.51c0.522-0.131 1.045-0.196 1.567-0.196 0.441 0 0.882 0.049 1.355 0.163l-0.653 3.543c0.963 0.163 1.78 0.62 2.449 1.388l2.661-2.416c0.62 0.718 1.11 1.551 1.437 2.514l-3.331 1.224c0.147 0.457 0.212 0.931 0.212 1.42s-0.065 0.947-0.212 1.388l3.412 1.127zM25.143 9.273l-0.686 0.408c-0.424-0.588-0.898-1.127-1.437-1.6l-0.816 0.882c-1.159-1.094-2.318-1.747-3.478-1.976l0.343-1.094c-0.604-0.212-1.224-0.343-1.845-0.408v-0.816c3.282 0.359 5.927 1.894 7.918 4.604zM6.89 18.171l-1.159 0.278c0.147 0.62 0.343 1.241 0.604 1.845l-0.653 0.408c-0.669-1.502-1.012-3.069-1.012-4.702 0-1.584 0.31-3.135 0.947-4.653l0.718 0.441c-0.294 0.686-0.506 1.404-0.653 2.139l1.192 0.212c-0.147 0.604-0.212 1.241-0.212 1.878-0.016 0.62 0.065 1.339 0.229 2.155zM14.808 4.637v0.849c-0.735 0.082-1.437 0.229-2.139 0.441l0.376 1.159c-1.29 0.441-2.433 1.127-3.429 2.073h-0.033l-0.816-0.914c-0.457 0.441-0.882 0.914-1.257 1.437l-0.686-0.408c1.975-2.727 4.637-4.278 7.984-4.637z"></path>
</svg>
