<!-- Generated by IcoMoon.io -->
<svg version="1.1" xmlns="http://www.w3.org/2000/svg" width="32" height="32" viewBox="0 0 32 32">
<path d="M27.102 20.245c-0.163-0.865-0.245-1.616-0.245-2.286 0-0.016 0.016-0.065 0.033-0.131v-0.098c0-0.065-0.033-0.163-0.082-0.294s-0.082-0.229-0.082-0.294c0-1.273-0.31-1.91-0.947-1.91h-0.849l-0.098-0.098c0.392-0.278 0.588-0.588 0.588-0.98 0-0.065-0.016-0.114-0.033-0.163-0.424-0.294-0.849-0.588-1.29-0.882-0.522-0.31-1.012-0.473-1.469-0.473-0.278 0-0.522 0.065-0.751 0.196-0.375 0.506-0.816 0.947-1.339 1.339-0.506 0.392-0.767 0.784-0.767 1.175 0 0.229 0.147 0.457 0.441 0.686 0.229 0.147 0.473 0.31 0.751 0.473 0.669 0.588 1.322 1.355 1.943 2.318 0.473 0.898 0.98 1.78 1.469 2.661 0.163 0.278 0.245 0.473 0.245 0.62s-0.049 0.359-0.163 0.637c-0.098 0.278-0.163 0.49-0.163 0.637 0 0.571-0.571 1.029-1.698 1.404 0.392 0.294 0.914 0.441 1.535 0.441 0.98 0 1.796-0.555 2.449-1.665 0.522-0.898 0.784-1.845 0.784-2.857 0.049-0.163-0.049-0.327-0.261-0.457zM21.894 9.306c-0.441-0.767-0.686-1.175-0.751-1.225 0.049-0.278 0.212-0.473 0.539-0.62-0.065-0.049-0.147-0.065-0.245-0.065-0.065 0-0.114 0.016-0.163 0.033-0.245 0.506-0.506 0.898-0.784 1.192v1.127c0 0.229-0.147 0.506-0.441 0.816s-0.571 0.522-0.849 0.62c-0.898 0.31-1.502 0.718-1.812 1.224-0.131 0.278-0.278 0.833-0.473 1.698h-0.375c-0.441-0.669-0.653-1.192-0.653-1.567 0-0.065 0.016-0.163 0.049-0.31s0.049-0.245 0.049-0.31c0-0.441-0.147-0.833-0.441-1.159 0.016-0.359 0.229-0.686 0.62-0.98 0.359-0.229 0.702-0.473 1.029-0.718l-0.098-0.033 0.245-0.163c0.294-0.506 0.767-0.914 1.437-1.224 0.392-0.163 1.029-0.359 1.91-0.571 0.212-0.278 0.31-0.735 0.31-1.388 0-1.241-0.375-1.845-1.127-1.845-0.147 0-0.375 0.033-0.669 0.082s-0.522 0.082-0.669 0.082c-0.212 0-0.49-0.082-0.849-0.229-0.359-0.163-0.653-0.229-0.882-0.229-0.196 0-0.62 0.212-1.29 0.653-0.049-0.245-0.163-0.376-0.376-0.376-0.653 0-0.98 0.294-0.98 0.882 0 0.278 0.163 0.637 0.506 1.094-0.163 0.131-0.359 0.196-0.571 0.196-0.31 0-0.571-0.278-0.751-0.816l1.029-1.567c-0.016-0.441-0.245-0.653-0.653-0.653-0.522 0-1.127 0.245-1.78 0.751-0.669 0.506-0.996 0.996-0.996 1.469 0 0.914 0.669 1.992 2.008 3.216s2.008 2.302 2.008 3.249c0 0.098-0.065 0.229-0.212 0.376s-0.212 0.278-0.212 0.376c0 0.245 0.049 0.473 0.163 0.653l0.343 0.065v0.473l-0.163 0.065-0.131-0.278c-0.212 0.098-0.425 0.163-0.653 0.196 0.065-0.359 0.049-0.669-0.065-0.947-0.31-0.229-0.539-0.408-0.686-0.539-0.833-0.767-1.273-1.175-1.322-1.224-0.359-0.392-0.62-0.914-0.784-1.535-0.049-0.016-0.065-0.033-0.098-0.033-0.327 0-0.686 0.278-1.029 0.816l0.212 0.098c0 0.539 0.163 1.29 0.473 2.253 0.359 0.147 0.653 0.425 0.914 0.816 0.147 0.359 0.31 0.702 0.49 1.029s0.327 0.588 0.425 0.751c-0.147 1.714 0.18 2.58 0.98 2.58 0.229 0 0.392-0.163 0.473-0.473 0.131 0.147 0.278 0.261 0.441 0.343 0.212 0.8 0.31 1.355 0.31 1.665 0 0.049 0.033 0.098 0.082 0.196 0.049 0.082 0.082 0.147 0.082 0.196 0 0.212-0.049 0.473-0.163 0.784 0.131 0.098 0.278 0.163 0.441 0.163 0.131 0 0.229-0.065 0.31-0.212s0.196-0.212 0.31-0.212c0.392 0 0.588-0.065 0.588-0.212 0-0.098-0.065-0.212-0.196-0.343s-0.196-0.229-0.196-0.31c0-0.441 0.261-0.653 0.784-0.653 0.049 0.016 0.065 0.033 0.098 0.033v0.375l-0.245 0.245 0.196 0.065c0 0.245-0.065 0.457-0.212 0.588-0.539 1.322-0.849 2.008-0.914 2.073 0.049 0.049 0.065 0.098 0.065 0.163 0 0.147-0.016 0.327-0.049 0.571-0.033 0.229-0.049 0.408-0.049 0.539 0 1.273 0.212 3.037 0.653 5.273 0.147-0.359 0.229-0.947 0.245-1.78 0.016-0.751 0.131-1.322 0.31-1.731l0.506-0.996c0-0.196-0.033-0.457-0.114-0.784-0.065-0.327-0.114-0.588-0.114-0.751 0-0.065 0.016-0.147 0.049-0.261s0.049-0.196 0.049-0.261c0-0.294 0.016-0.522 0.033-0.686l0.278-0.065c-0.082-0.065-0.147-0.131-0.196-0.212 0.147-0.245 0.245-0.506 0.31-0.751 0.065-0.065 0.098-0.131 0.098-0.212 0-0.196 0.131-0.424 0.375-0.686 0.245-0.278 0.375-0.49 0.375-0.653v-1.322c-0.163-0.196-0.327-0.359-0.506-0.506 0.049-0.392 0.065-0.686 0.098-0.882 0.735-0.604 1.241-1.094 1.535-1.437-0.082-0.473 0-1.029 0.261-1.649s0.604-1.078 1.012-1.388c0.571-0.441 0.849-0.735 0.849-0.914v-1.257zM17.943 28.408c0-0.098-0.033-0.229-0.082-0.375s-0.082-0.261-0.082-0.343v-1.469c0-0.065 0.016-0.147 0.033-0.261s0.033-0.196 0.033-0.261c0-0.131-0.033-0.245-0.098-0.343h-0.278c-0.163 0.31-0.245 0.686-0.245 1.094 0 1.143 0.245 2.024 0.718 2.629v-0.669zM14.302 19.396c-0.131-0.049-0.261-0.065-0.408-0.065-0.163 0-0.343 0.065-0.539 0.196-0.278 0.212-0.425 0.327-0.473 0.343 0 0.278-0.033 0.653-0.082 1.159s-0.082 0.882-0.082 1.127c0 0.392 0.294 0.882 0.882 1.453s0.882 1.061 0.882 1.453c0 0.131 0.033 0.278 0.114 0.457 0.065 0.18 0.114 0.327 0.114 0.424 0 0.686 0.131 1.584 0.376 2.694 0.098-1.208 0.163-1.943 0.163-2.188 0-0.098-0.033-0.261-0.114-0.457-0.065-0.196-0.114-0.343-0.114-0.457 0-0.506-0.082-1.029-0.245-1.6 0.278-0.98 0.408-1.731 0.408-2.253 0-0.098-0.016-0.196-0.033-0.278l0.098-0.033 0.098 0.212 0.196-0.065c-0.62-0.898-1.029-1.616-1.241-2.122zM10.645 13.682c-0.735-0.539-1.29-0.8-1.698-0.8-0.425 0-0.751 0.131-0.996 0.408s-0.473 0.539-0.686 0.784c-0.229 0.245-0.408 0.425-0.539 0.539-0.457 0.457-0.882 1.094-1.273 1.91s-0.588 1.518-0.588 2.106c0 0.229-0.049 0.555-0.147 0.963s-0.147 0.718-0.147 0.963v1.257c0 0.588 0.327 1.322 0.98 2.188 0.686 0.947 1.339 1.404 1.943 1.404h0.816c0.082 0 0.229-0.016 0.425-0.033s0.343-0.033 0.457-0.033c0.147 0 0.278 0.016 0.376 0.033l1.192-0.212c-0.735-0.098-1.257-0.18-1.6-0.212-0.62-0.147-1.192-0.539-1.682-1.159s-0.735-1.241-0.735-1.845c0-0.914 0.441-1.878 1.322-2.857 0.212-0.278 0.996-1.012 2.351-2.22 0.882-0.767 1.322-1.371 1.322-1.78 0-0.425-0.376-0.865-1.094-1.404zM13.829 24.669c0-0.229-0.212-0.343-0.62-0.343h-0.163c-0.131 0-0.196 0.147-0.196 0.441 0 0.131 0.049 0.327 0.147 0.588 0.098 0.278 0.147 0.473 0.147 0.588 0 0.751 0.147 1.339 0.441 1.763 0.163-0.735 0.245-1.208 0.245-1.404v-1.633zM14.775 6.449v-0.065l0.245 0.033v0.033h-0.245zM25.257 16.392l-0.212-0.065h-0.033l0.065 0.131-0.212-0.065v-0.245c0.082-0.082 0.163-0.131 0.245-0.131 0.131 0 0.196 0.065 0.196 0.196v0.065c-0.016 0.049-0.033 0.098-0.049 0.114zM16.914 18.335c-0.147-0.229-0.212-0.359-0.212-0.375l0.278-0.278h0.212v0.653h-0.278z"></path>
</svg>
