<!-- Generated by IcoMoon.io -->
<svg version="1.1" xmlns="http://www.w3.org/2000/svg" width="32" height="32" viewBox="0 0 32 32">
<path d="M27.184 10.71c-1.257-1.91-2.89-3.396-4.931-4.441 1.976 1.812 2.955 3.853 2.955 6.139 0 1.6-0.392 3.004-1.192 4.229-0.947 1.453-2.22 2.171-3.837 2.171-0.98 0-1.731-0.604-2.237-1.796-0.392-0.882-0.604-1.878-0.604-2.955 0-1.224 0.294-2.335 0.882-3.347 0.653-1.11 1.551-1.878 2.678-2.302l-1.453-1.633c-0.865 0.49-1.535 1.127-2.024 1.959 0-1.127 0.31-2.171 0.947-3.118l-2.367-2.645-2.4 2.645c0.637 0.947 0.947 1.959 0.947 3.020v0.098c-0.49-0.816-1.143-1.469-1.992-1.959l-1.486 1.633c1.127 0.425 2.024 1.192 2.678 2.302 0.588 1.012 0.882 2.122 0.882 3.347 0 1.094-0.196 2.073-0.571 2.955-0.506 1.192-1.257 1.796-2.269 1.796-1.616 0-2.89-0.718-3.82-2.171-0.816-1.224-1.224-2.629-1.224-4.229 0-2.286 0.996-4.343 2.988-6.139-2.057 1.078-3.706 2.563-4.963 4.457s-1.878 3.918-1.878 6.073c0 3.314 1.273 6.188 3.837 8.62s5.633 3.641 9.241 3.641 6.661-1.208 9.225-3.641c2.547-2.433 3.82-5.306 3.82-8.62 0.049-2.155-0.571-4.18-1.829-6.090z"></path>
</svg>
