<!-- Generated by IcoMoon.io -->
<svg version="1.1" xmlns="http://www.w3.org/2000/svg" width="32" height="32" viewBox="0 0 32 32">
<path d="M10.906 3.984c-1.567 0.653-3.004 1.567-4.18 2.743s-2.090 2.612-2.743 4.18-1.045 3.265-1.045 5.094 0.392 3.527 1.045 5.094c0.653 1.567 1.567 3.004 2.743 4.18s2.612 2.090 4.18 2.743 3.265 1.045 5.094 1.045 3.527-0.392 5.094-1.045c1.567-0.653 3.004-1.567 4.18-2.743s2.090-2.612 2.743-4.18 1.045-3.265 1.045-5.094-0.392-3.527-1.045-5.094-1.567-3.004-2.743-4.18c-1.175-1.175-2.612-2.090-4.18-2.743s-3.265-1.045-5.094-1.045-3.527 0.392-5.094 1.045zM5.682 11.559c0.653-1.306 1.437-2.612 2.351-3.527s2.22-1.829 3.527-2.351c1.306-0.653 2.873-0.914 4.31-0.914s3.004 0.261 4.441 0.914 2.612 1.437 3.527 2.351 1.829 2.22 2.351 3.527c0.653 1.306 0.914 2.873 0.914 4.441 0 0.261 0 0.653 0 0.914s0 0.522-0.131 0.914c-0.392 0.131-0.914 0.261-1.698 0.392s-1.437 0.261-2.351 0.392c-0.784 0.131-1.698 0.131-2.482 0.261-0.784 0-1.437 0-2.090-0.261s-0.914-0.522-1.045-0.914c-0.131-0.392 0-1.045 0.392-1.829l2.873 0.653-3.788-6.792-7.837 3.396 2.873 0.914c-0.914 1.437-1.437 2.873-1.306 4.441 0 0.653 0.131 1.306 0.392 2.090s0.653 1.437 1.175 2.22 1.306 1.437 2.22 2.22 2.090 1.437 3.657 2.090c-0.392 0.131-0.784 0.131-1.045 0.131-0.392 0-0.784 0-1.175 0-1.567 0-3.004-0.261-4.31-0.914s-2.612-1.437-3.527-2.351c-1.045-1.045-1.829-2.22-2.351-3.527-0.653-1.306-0.914-2.873-0.914-4.441s0.392-3.004 1.045-4.441z"></path>
</svg>
