<!-- Generated by IcoMoon.io -->
<svg version="1.1" xmlns="http://www.w3.org/2000/svg" width="32" height="32" viewBox="0 0 32 32">
<path d="M24.882 19.461c0.131-0.784 0.261-1.437 0.261-2.090 0-1.045-0.261-1.959-0.522-2.873s-0.653-1.698-1.306-2.482c-0.653-0.784-1.306-1.437-2.090-1.959-0.784-0.653-1.698-1.045-2.612-1.306l1.437-3.657h-8.098l1.437 3.657c-0.914 0.261-1.829 0.653-2.612 1.175s-1.567 1.306-2.090 1.959-0.914 1.567-1.306 2.482-0.522 1.829-0.522 2.873c0 0.653 0.131 1.306 0.261 2.090l-4.18 0.784 4.31 6.792 2.351-3.135c0.784 0.914 1.829 1.437 2.873 1.959 1.175 0.392 2.351 0.653 3.527 0.653 1.306 0 2.482-0.261 3.527-0.653 1.045-0.522 1.959-1.175 2.873-1.959l2.22 3.135 4.441-6.792-4.18-0.653zM18.482 18.155l2.482 3.657c-0.653 0.653-1.306 1.175-2.22 1.567-0.784 0.392-1.698 0.653-2.743 0.653s-1.959-0.261-2.743-0.653c-0.914-0.392-1.567-0.914-2.22-1.567l2.612-3.657-4.18 0.784c-0.131-0.522-0.131-1.045-0.131-1.698 0-0.784 0.131-1.567 0.392-2.22 0.261-0.784 0.653-1.437 1.045-1.959s0.898-1.061 1.551-1.453c0.522-0.392 1.192-0.767 1.976-0.898l1.698 4.18 1.698-4.18c0.653 0.261 1.306 0.522 1.959 0.914s1.175 0.914 1.567 1.437c0.392 0.522 0.784 1.175 1.045 1.829 0.261 0.784 0.392 1.437 0.392 2.22 0 0.392-0.065 0.637-0.098 0.882-0.033 0.261-0.114 0.539-0.163 0.816l-3.918-0.653z"></path>
</svg>
