<!-- Generated by IcoMoon.io -->
<svg version="1.1" xmlns="http://www.w3.org/2000/svg" width="32" height="32" viewBox="0 0 32 32">
<path d="M10.71 12.343l1.698 2.22 1.437-6.661-5.616 3.788 2.482 0.653zM19.984 14.302l2.090-6.531-6.139 3.265 2.612 0.914 1.437 2.351zM20.114 21.616l1.829 2.090 0.653-6.792-5.224 4.441 2.743 0.261zM10.971 3.984c-1.567 0.653-3.004 1.567-4.18 2.743s-2.090 2.612-2.873 4.18c-0.653 1.567-1.045 3.265-1.045 5.094s0.392 3.527 1.045 5.094c0.653 1.567 1.567 3.004 2.873 4.18 1.175 1.175 2.612 2.090 4.18 2.743s3.265 1.045 5.094 1.045 3.527-0.392 5.094-1.045c1.567-0.653 3.004-1.567 4.18-2.743s2.090-2.612 2.743-4.18 1.045-3.265 1.045-5.094-0.392-3.527-1.045-5.094c-0.653-1.567-1.567-3.004-2.743-4.18s-2.612-2.090-4.18-2.743-3.265-1.045-5.094-1.045-3.527 0.392-5.094 1.045zM19.722 24.882c0.131-0.653 0.392-1.306 0.522-1.829l-0.653-0.784h-0.784c-0.261 0.784-0.653 1.567-0.914 2.351-0.261 0.914-0.522 1.698-0.784 2.612h-1.175c-0.522 0-1.045 0-1.567-0.131-0.522 0-1.045-0.131-1.567-0.392 0.653-3.004 1.437-5.486 2.482-7.837 1.045-2.22 2.090-4.18 3.265-5.747l-0.392-0.653-1.045-0.261c-0.653 0.784-1.175 1.567-1.829 2.612-0.653 0.914-1.175 1.959-1.829 3.135s-1.175 2.351-1.698 3.657-1.045 2.743-1.306 4.18c-1.175-0.653-2.090-1.567-3.004-2.612 0.392-1.829 0.914-3.527 1.567-5.224 0.653-1.567 1.175-3.004 1.959-4.31l-0.522-0.914-0.653-0.131c-0.653 1.045-1.306 2.351-1.959 3.657s-1.306 2.743-1.829 4.31c-0.261-0.653-0.522-1.437-0.653-2.22s-0.261-1.567-0.261-2.351c0-1.567 0.261-3.004 0.914-4.31 0.522-1.306 1.437-2.482 2.351-3.527 1.045-1.045 2.22-1.829 3.527-2.351s2.873-0.914 4.441-0.914c1.567 0 3.004 0.261 4.441 0.914 1.306 0.522 2.612 1.437 3.527 2.351s1.829 2.22 2.351 3.527c0.653 1.306 0.914 2.743 0.914 4.31 0 1.306-0.261 2.482-0.653 3.657s-0.914 2.22-1.698 3.135-1.567 1.698-2.482 2.482c-0.914 0.653-2.090 1.175-3.135 1.567-0.131-0.784 0-1.306 0.131-1.959z"></path>
</svg>
