<!-- Generated by IcoMoon.io -->
<svg version="1.1" xmlns="http://www.w3.org/2000/svg" width="32" height="32" viewBox="0 0 32 32">
<path d="M7.265 13.567l-0.261 1.175-0.131 1.437 0.131 1.437 0.392 1.306 0.522 1.175 0.653 1.175 1.045 1.175 1.306 1.045 1.306 0.784 1.306 0.522 1.175 0.261 0.522 3.935 1.567-3.804 1.437-0.261 1.306-0.522 1.175-0.522 0.914-0.653 0.784-0.784 1.976 0.784-1.045-1.845 0.522-0.914 0.522-1.045 0.261-0.784 0.131-0.784 0.131-0.522 3.020-0.653-2.89-1.045-0.131-1.045-0.392-1.437-0.784-1.714-1.045-1.306-1.175-1.045-1.175-0.784-1.567-0.653-1.306-0.261-0.784-0.131h-0.653l-2.237-4.327 0.392 4.588-1.567 0.522-1.306 0.653-1.306 1.045-1.045 1.175-0.653 1.045-0.392 0.653-3.935-0.784 3.282 1.731zM13.306 8.849l0.784-0.261 0.131 1.567-0.784 0.392-1.714-0.914 0.522-0.392 1.061-0.392zM10.155 11.216l0.914-0.914 0.784 1.976-0.784 1.045-1.976-0.392 0.392-0.784 0.669-0.931zM8.457 15.282l0.131-0.914 1.845 1.045v1.045l-1.845 0.914-0.131-0.914v-1.175zM22.106 18.563l0.131-1.045 1.306-0.261-0.131 0.914-0.784 1.829-0.522-0.914v-0.522zM18.694 21.976l0.784-0.261 0.522-0.392 1.175 0.522-0.784 0.653-0.914 0.653-1.829 0.522 0.392-1.306 0.653-0.392zM23.151 16.065l-3.804 0.914 1.845 3.282-3.804-1.976-1.437 4.588-0.392-3.412-2.106 1.976 0.522 0.261 0.392 0.131 0.131 1.714-0.914-0.261-0.914-0.392-0.914-0.522-0.653-0.522 11.020-10.237 0.522 0.784 0.392 0.653 0.261 0.914 0.131 0.914-1.045-0.392-0.131-0.653-0.261-0.653-1.567 1.845 2.727 1.045zM10.808 18.825l1.175-1.175-1.045-0.392 2.367-1.567-2.629-1.306 3.282-0.131-1.306-2.759 2.629 1.306-0.131-3.543 1.845 3.282 2.237-1.845-0.131-0.131-0.522-0.261-0.914-0.261-0.653-0.131-0.653-1.306 1.306 0.131 1.175 0.392 0.914 0.392 0.784 0.522 0.653 0.653-11.151 10.367-0.522-0.653-0.522-0.914-0.261-0.653-0.131-0.653 2.106 0.392 0.098 0.245z"></path>
</svg>
