<!-- Generated by IcoMoon.io -->
<svg version="1.1" xmlns="http://www.w3.org/2000/svg" width="32" height="32" viewBox="0 0 32 32">
<path d="M27.429 7.282c-1.649-0.196-3.494-0.343-5.486-0.441-2.008-0.098-4.114-0.163-6.351-0.163-2.024 0-3.951 0.049-5.796 0.131s-3.559 0.212-5.127 0.359l-1.731 1.763v14.58l1.682 1.682c1.567-0.163 3.282-0.278 5.143-0.359s3.804-0.131 5.845-0.131c2.204 0 4.294 0.049 6.269 0.163 1.976 0.098 3.788 0.245 5.437 0.441l1.763-1.78v-14.58l-1.649-1.665zM26.841 12.261v7.314l-3.135 3.184c-1.273-0.082-2.596-0.147-3.951-0.196s-2.743-0.065-4.163-0.065c-1.257 0-2.498 0.016-3.722 0.049s-2.433 0.082-3.592 0.163l-3.135-3.135v-8.865l3.151-3.135c1.159-0.082 2.351-0.147 3.559-0.18s2.465-0.049 3.739-0.049c1.437 0 2.841 0.033 4.212 0.082s2.694 0.114 3.967 0.212l3.053 3.086v1.535zM12.163 7.918c-1.11 0.033-2.237 0.065-3.347 0.147l-2.776 2.776v6.678l0.033 0.033v0.131l2.727 2.743c1.127-0.065 2.237-0.114 3.363-0.147s2.269-0.033 3.445-0.033c2.629 0 5.143 0.082 7.559 0.229l2.792-2.792v-0.131l0.033-0.033v-6.678l-2.743-2.727c-2.416-0.163-4.963-0.229-7.641-0.229-1.175 0-2.335 0.016-3.445 0.033z"></path>
</svg>
