<!-- Generated by IcoMoon.io -->
<svg version="1.1" xmlns="http://www.w3.org/2000/svg" width="32" height="32" viewBox="0 0 32 32">
<path d="M10.955 4.114c-1.551 0.637-2.971 1.551-4.131 2.71-1.29 1.159-2.188 2.58-2.841 4.131-0.637 1.551-1.029 3.233-1.029 5.045s0.376 3.494 1.029 5.045c0.767 1.551 1.682 2.971 2.841 4.131s2.58 2.057 4.131 2.71c1.551 0.637 3.233 1.029 5.045 1.029s3.494-0.392 5.045-1.029 2.971-1.551 4.131-2.71c1.159-1.159 2.188-2.58 2.841-4.131 0.637-1.551 1.029-3.233 1.029-5.045s-0.375-3.494-1.029-5.045c-0.767-1.551-1.682-2.971-2.841-4.131s-2.58-2.057-4.131-2.71c-1.551-0.637-3.233-1.029-5.045-1.029s-3.494 0.392-5.045 1.029zM23.494 10.22c-0.506 0.131-0.898 0.131-1.29 0.131-0.522 0-1.029-0.131-1.42-0.261-0.261-0.131-0.392-0.392-0.522-0.653-0.131-0.245-0.131-0.637-0.261-1.029-0.131-0.376-0.131-0.767-0.131-1.159 0-0.375 0-0.637 0-0.898v-0.131l-0.131 0.392c-0.131 0.245-0.261 0.637-0.392 1.029-0.131 0.376-0.392 0.767-0.653 1.159-0.245 0.376-0.506 0.767-0.898 0.898-0.131 0-0.131 0-0.261 0s-0.261 0-0.522-0.131c-0.245 0-0.506-0.261-0.898-0.522s-0.898-0.637-1.42-1.29c-0.522-0.653-1.159-1.437-1.943-2.335 0.522-0.261 1.029-0.261 1.551-0.392s1.159-0.131 1.682-0.131c1.943 0 3.755 0.392 5.306 1.29 1.551 0.914 2.857 2.204 3.886 3.625-0.637 0.131-1.159 0.261-1.682 0.408zM13.371 9.502c0.261 0.914 0.392 1.551 0.261 1.812-0.506 0.392-0.767 0.653-0.898 0.784s-0.506 0.261-1.29 0.392c-0.767 0.131-1.159 0.261-1.159 0.261h-0.522c0.261 0 0.392 0 0.784 0.131 0.376 0.131 0.637 0.261 1.029 0.522 0.245 0.261 0.506 0.522 0.898 0.784 0.392 0.245 0.522 0.637 0.653 1.029 0.131 0.376 0 0.767-0.392 1.159-0.261 0.392-0.767 0.767-1.29 1.29-0.522 0.506-1.029 0.898-1.682 1.29-0.522 0.375-1.029 0.637-1.42 0.898v0l0.522-0.131c0.392-0.131 0.767-0.392 1.29-0.522s1.029-0.392 1.682-0.522c0.653-0.261 1.29-0.392 1.812-0.392-0.245 0.261-0.637 0.522-1.029 0.784-0.245 0.261-0.637 0.522-1.029 0.784-0.245 0.131-0.637 0.261-0.898 0.522-0.245 0.131-0.637 0.392-0.898 0.522s-0.522 0.392-0.784 0.522c-0.261 0.131-0.522 0.392-0.784 0.522l-1.159 0.784c-0.653-1.029-1.159-2.073-1.551-3.102-0.392-1.159-0.522-2.335-0.522-3.494s0.261-2.335 0.522-3.363c0.261-1.029 0.767-2.073 1.42-2.971 0.522-0.898 1.306-1.796 2.204-2.449 0.767-0.784 1.812-1.29 2.841-1.682 0.784 1.42 1.306 2.727 1.388 3.837zM12 20.784c1.306-0.898 2.596-2.073 3.886-3.102 0.114 0 0.376-0.375 0.898-0.898l0.522-0.653c0.131-0.261 0.261-0.392 0.392-0.653-0.261 0.131-0.392 0.131-0.522 0.261s-0.261 0.131-0.392 0.261c-0.131 0.131-0.261 0.131-0.392 0.261-0.131 0-0.261 0.131-0.392 0.131s-0.261 0.131-0.392 0.131v0c-0.131 0-0.392-0.131-0.522-0.131-0.131-0.131-0.261-0.131-0.522-0.131 0.392-0.653 0.392-1.29 0.261-1.812 0-0.522-0.261-0.898-0.653-1.42 0.637-0.376 0.898-0.767 1.159-1.159 0.131 0 0.131-0.261 0.261-0.392s0.131-0.392 0.131-0.784c0.522 0.392 1.159 0.653 1.682 0.653 0.506 0 0.898-0.131 1.159-0.392 0.131 0 0.131-0.131 0.261-0.131s0.131-0.131 0.261-0.131c0.131 0.261 0.261 0.392 0.392 0.522s0.392 0.131 0.522 0.261c0.522 0.261 1.306 0.392 2.204 0.392h0.163c-0.506 0.653-0.767 1.29-0.898 1.682-0.131 0.376-0.261 0.767-0.261 1.029s0 0.522 0 0.784 0.131 0.522 0.131 0.784c-0.653 0.131-1.29 0.261-2.073 0.653-0.261 0.131-0.522 0.392-0.784 0.653-0.261 0.245-0.522 0.506-0.784 0.898 0 0 0-0.131-0.131-0.261s-0.261-0.392-0.392-0.522v0c-0.653 0.767-1.29 1.682-1.943 2.58-0.653 0.637-1.29 1.551-2.073 2.58s-1.551 2.073-2.335 3.102c-0.522-0.245-0.898-0.506-1.42-0.898-0.506-0.375-0.898-0.767-1.29-1.159 1.29-1.029 2.71-2.057 3.886-2.988zM13.731 26.727c-0.522 0-1.029-0.261-1.551-0.392l0.653-0.898c0.261-0.375 0.522-0.767 0.784-1.159 0.261-0.375 0.522-0.767 0.784-1.159 0.261-0.375 0.522-0.767 0.784-1.159s0.522-0.767 0.784-1.29l0.261-0.261c0.131 0.522 0.261 1.159 0.261 1.682s0.131 1.029 0.131 1.551c0 0.506 0 0.898 0 1.159v0.522l0.131 0.131c0 0 0.131-0.261 0.131-0.522s0.131-0.637 0.261-1.159 0.261-1.029 0.392-1.551c0.261-0.653 0.392-1.159 0.653-1.682s0.522-1.029 0.784-1.42c0.261-0.375 0.522-0.767 0.784-0.898 0.522-0.261 0.898-0.392 1.42-0.392 0.392 0 0.767 0.131 1.29 0.261 0.522 0.261 1.029 0.392 1.682 0.653l0.653 0.261h0.131l-0.392-0.392c-0.261-0.245-0.522-0.506-0.784-0.898-0.392-0.392-0.653-0.767-0.784-1.29s-0.261-1.029-0.131-1.682c0-0.376 0.131-0.767 0.392-1.159 0.245-0.392 0.506-0.767 0.898-1.29s0.898-1.029 1.682-1.551c0.375 0.767 0.637 1.665 0.898 2.449 0.261 0.898 0.392 1.812 0.392 2.71 0 1.42-0.245 2.971-0.898 4.261-0.637 1.42-1.42 2.596-2.449 3.625-0.914 1.029-2.204 1.927-3.494 2.449-1.29 0.637-2.71 0.898-4.261 0.898-0.653 0-1.159 0-2.269-0.408z"></path>
</svg>
