<!-- Generated by IcoMoon.io -->
<svg version="1.1" xmlns="http://www.w3.org/2000/svg" width="32" height="32" viewBox="0 0 32 32">
<path d="M29.355 16.212c-0.065 0.784-3.673 0.653-4 1.943-0.327 1.241 2.727 3.020 2.498 3.559-0.229 0.588-3.527-0.604-4.702 0.686-1.061 1.175-0.229 3.82-0.555 4.082-0.392 0.31-2.694-1.633-4.278-1.012-1.535 0.588-1.943 3.461-2.318 3.461-0.637 0-0.571-3.184-2.286-3.575-1.437-0.327-3.445 2.384-3.853 2.204-0.473-0.212 0.751-2.269 0-3.543-1.045-1.763-5.502-1.159-5.682-1.747-0.18-0.571 2.955-2.873 2.547-4.245-0.425-1.388-3.837-1.339-3.804-1.992 0.049-0.849 3.869-0.18 4.033-1.714 0.147-1.469-3.755-5.453-3.216-6.008 0.425-0.441 4.033 3.298 4.882 2.433 0.49-0.506-3.478-5.159-3.2-5.453 0.278-0.278 4.751 2.727 5.469 2.612 1.127-0.196-1.633-2.612-1.175-3.020 0.49-0.441 3.837 1.91 4.392 1.665 1.322-0.588 1.388-3.331 2.057-3.347 0.49-0.016 1.208 3.331 2.71 3.575 1.404 0.245 2.759-2.416 3.478-2.122 0.539 0.212-0.18 3.837 1.208 4.735 1.208 0.784 3.429-0.98 3.804-0.473 0.441 0.588-2.678 2.775-2.188 4.555 0.473 1.747 4.229 1.943 4.18 2.743zM12.376 8.294c-0.229 0.098-0.343 0.327-0.376 0.376-0.31 0.62 0.261 1.469 0.473 1.796 1.6 2.4 8.196 6.629 8.8 8.555 0.098 0.294 0.114 0.718-0.212 0.996-0.245 0.196-0.751 0.131-0.882 0.065-1.535-0.604-6.612-6.269-8.735-7.673-0.914-0.604-1.535-0.571-1.861-0.49-0.18 0.049-0.653 0.18-0.8 0.473-0.62 1.192 5.714 5.175 5.845 7.151 0.049 0.784-0.343 1.029-1.094 0.653-0.735-0.359-3.445-4.327-4.931-4.539-0.588-0.082-1.388-0.065-1.567 0.31-0.261 0.522 0.996 1.127 1.029 2.4 0.033 0.963-0.669 1.502-0.343 2.057 0.147 0.245 0.343 0.229 0.816 0.441 0.849 0.392 2.106 1.339 2.498 2.58 0.131 0.424 0.131 0.8 0.425 0.931 0.229 0.114 0.473 0.033 0.947-0.196 1.127-0.539 2.139-0.343 2.939 0.653 0.767 0.947 0.833 1.029 1.698 0.016 0.931-1.094 2.024-1.388 3.38-0.833 0.196 0.082 0.441 0.147 0.669 0.033 0.294-0.147 0.359-0.506 0.441-0.735 0.261-0.914 1.078-2.269 2.090-2.71 0.212-0.098 0.555-0.196 0.686-0.49 0.098-0.212 0.049-0.441-0.016-0.637-0.506-1.486-0.343-2.057 0.882-2.988 0.588-0.441 0.588-0.653 0.049-1.143-0.31-0.278-0.653-0.571-0.898-0.914-0.571-0.833-0.441-1.747-0.147-2.645 0.114-0.359 0.196-0.669 0.016-0.914-0.196-0.278-0.571-0.245-0.833-0.294-1.306-0.196-1.273-2.139-2.661-2.776-1.094-0.506-1.682 0.473-3.020-0.114-1.029-0.441-1.371-1.322-1.714-1.159-0.8 0.359-0.963 1.061-0.098 1.959 1.29 1.355 3.771 2.433 3.902 3.053 0.065 0.327-0.392 0.62-0.686 0.718-0.539 0.18-1.192-0.082-3.608-2.090-1.616-1.306-2.498-2.155-3.102-1.878z"></path>
</svg>
