<!-- Generated by IcoMoon.io -->
<svg version="1.1" xmlns="http://www.w3.org/2000/svg" width="32" height="32" viewBox="0 0 32 32">
<path d="M23.967 15.804c-0.522-0.653-0.653-1.567-0.261-2.482 0.261-1.045 0.914-2.22 1.829-3.527s2.090-2.873 3.527-4.702c-1.829 1.306-3.396 2.482-4.702 3.396-1.437 0.914-2.612 1.437-3.657 1.698s-1.959 0.131-2.612-0.522-1.306-1.567-1.698-3.135c0 0.784-0.131 1.437-0.261 1.959s-0.261 1.045-0.392 1.306c-0.653-0.392-1.306-0.522-1.959-0.784s-1.437-0.261-2.22-0.261c-1.175 0-2.22 0.261-3.396 0.653s-1.959 1.045-2.743 1.829c-0.784 0.784-1.437 1.698-1.829 2.743-0.522 1.045-0.653 2.22-0.653 3.396s0.261 2.351 0.653 3.396c0.522 1.045 1.045 1.959 1.829 2.743s1.698 1.437 2.743 1.829c1.045 0.392 2.22 0.653 3.396 0.653 0.914 0 1.829-0.131 2.612-0.392s1.567-0.653 2.351-1.175c0.392 0.653 0.653 1.437 0.914 2.482 0.131-1.567 0.392-2.612 0.914-3.265 0.392-0.653 1.045-1.045 1.698-1.045s1.437 0.131 2.351 0.522c0.914 0.392 1.698 0.914 2.743 1.437-0.392-0.653-0.653-1.306-1.045-1.829s-0.522-1.175-0.784-1.567c-0.261-0.392-0.261-0.914-0.261-1.306s0.131-0.784 0.392-1.045c0.261-0.261 0.784-0.522 1.306-0.784 0.653-0.131 1.437-0.261 2.482-0.392-1.698-0.653-2.743-1.175-3.265-1.829zM16.392 23.51c-0.131 0.131-0.261 0.131-0.392 0.261v0c-0.653 0.522-1.306 0.784-2.090 1.045s-1.567 0.392-2.351 0.392h-0.131v-15.543h0.131c1.045 0 2.090 0.261 3.004 0.653s1.829 0.914 2.482 1.698c0.653 0.653 1.306 1.567 1.698 2.482s0.653 1.959 0.653 3.004c0 1.175-0.261 2.351-0.653 3.265-0.522 1.045-1.175 1.829-1.959 2.612-0.261-0.131-0.392 0-0.392 0.131z"></path>
</svg>
