<!-- Generated by IcoMoon.io -->
<svg version="1.1" xmlns="http://www.w3.org/2000/svg" width="32" height="32" viewBox="0 0 32 32">
<path d="M25.976 7.641c0.065 1.322 0.506 2.547 0.963 3.771 1.094 2.988 1.012 5.959-0.049 8.898-0.506 1.404-0.833 2.759-0.767 4.278 0.065 1.453-0.31 2.727-1.535 3.69-0.947 0.718-2.22 1.127-3.135 0.392-1.339-1.045-2.808-0.882-4.278-0.914-1.045-0.049-2.122 0.049-3.184 0.016-1.192-0.016-2.237 0.131-3.298 0.833-1.518 1.029-4.147-0.278-4.653-2.155-0.016-0.065-0.049-0.147-0.049-0.212 0.016-2.857-0.898-5.502-1.518-8.245-0.506-2.22-0.065-4.327 0.555-6.465 0.425-1.453 0.702-2.988 0.718-4.473 0.065-3.38 2.808-5.11 5.763-3.51 0.082 0.049 0.196 0.131 0.278 0.147 2.955 0.441 6.122 1.012 8.816-0.261 2.825-1.355 5.829 0.686 5.437 3.527 0.016 0.229-0.065 0.473-0.065 0.686-0.098 0.016 0.065-0.016 0 0zM5.665 15.575c0.049 0.62 0.016 1.257 0.131 1.861 0.114 0.637 0.278 1.29 0.457 1.91 1.78 6.384 8.604 9.127 14.449 6.384 4.473-2.090 6.090-7.004 5.567-11.429-0.441-3.69-2.351-6.498-5.6-8.131-7.086-3.592-15.004 1.453-15.004 9.404zM9.012 26.596c0-0.392-0.522-0.767-0.882-0.767s-0.882 0.441-0.882 0.816c0 0.522 0.522 0.914 0.914 0.914 0.327 0 0.849-0.49 0.849-0.963zM8.865 5.061c0-0.571-0.392-0.833-0.849-0.833-0.31 0-0.816 0.49-0.816 0.849 0 0.425 0.375 0.849 0.767 0.882 0.31 0 0.898-0.359 0.898-0.898zM24.833 5.143c0-0.131-0.016-0.343-0.082-0.457-0.18-0.245-0.31-0.343-0.718-0.343-0.245 0-0.702 0.212-0.702 0.751 0 0.375 0.424 0.751 0.718 0.751 0.343-0.049 0.784-0.425 0.784-0.702zM24.784 26.612c0-0.457-0.343-0.751-0.702-0.751-0.392 0-0.653 0.392-0.653 0.718 0 0.375 0.392 0.784 0.653 0.784 0.375 0 0.702-0.245 0.702-0.751zM25.518 15.673c0.327 5.257-4.359 10.008-9.192 10.025-5.437 0.049-9.567-4.033-9.6-9.518-0.065-5.486 4.065-10.008 9.192-10.024 5.273 0 9.6 4.473 9.6 9.518zM7.967 15.69c-0.049 4.963 3.461 8.767 8.098 8.833 4.424 0.049 8.375-3.853 8.375-8.49 0-4.931-4.147-8.62-7.869-8.702-4.963-0.131-8.571 3.445-8.604 8.359zM11.984 20.62c-0.278-0.082-0.62-0.392-0.555-0.702 0.065-0.392 0.425-0.767 0.718-1.078 2.367-2.433 4.735-4.865 7.102-7.282 0.18-0.18 0.375-0.392 0.588-0.457 0.245-0.065 0.62-0.065 0.784 0.082 0.18 0.147 0.245 0.522 0.196 0.767-0.049 0.261-0.261 0.522-0.457 0.718-2.367 2.482-4.735 4.963-7.135 7.429-0.31 0.327-1.159 0.571-1.241 0.522zM14.596 21.878c-0.457-0.065-0.62-0.522-0.522-0.849 0.114-0.424 0.506-0.784 0.833-1.127 1.665-1.731 3.363-3.461 5.029-5.192 0.147-0.147 0.31-0.327 0.49-0.457 0.457-0.376 1.029-0.849 1.486-0.245 0.196 0.261 0 1.078-0.278 1.388-1.257 1.388-2.596 2.678-3.902 4.016-0.637 0.653-1.224 1.339-1.894 1.992-0.31 0.278-1.078 0.49-1.241 0.473zM18.155 10.514c0.016 0.457-0.147 0.686-0.343 0.882-1.927 1.992-3.853 4-5.796 5.959-0.147 0.147-0.31 0.375-0.506 0.424-0.343 0.049-0.816 0.114-1.078-0.065-0.18-0.114-0.082-0.637-0.065-0.963 0.016-0.147 0.18-0.31 0.31-0.441 1.927-1.976 3.886-3.951 5.829-5.927 0.212-0.212 0.571-0.49 0.833-0.457 0.359 0.016 0.8 0.31 0.816 0.588zM22.433 17.976c-0.082 0.375-0.31 0.751-0.555 1.012-0.914 1.029-1.861 2.057-2.873 2.988-0.278 0.245-1.094 0.212-1.224 0.016-0.18-0.278-0.131-0.784 0.114-1.078 1.012-1.143 2.090-2.237 3.184-3.298 0.196-0.18 0.588-0.245 0.882-0.212 0.196 0.049 0.506 0.327 0.473 0.571zM10.612 14.335c-0.784-0.114-0.98-0.555-0.588-1.029 1.094-1.29 2.302-2.514 3.494-3.755 0.131-0.131 0.637-0.131 0.767 0 0.18 0.18 0.261 0.571 0.212 0.849-0.049 0.31-0.261 0.588-0.49 0.833-0.816 0.882-1.665 1.731-2.514 2.596-0.212 0.245-0.816 0.506-0.882 0.506z"></path>
</svg>
