<!-- Generated by IcoMoon.io -->
<svg version="1.1" xmlns="http://www.w3.org/2000/svg" width="32" height="32" viewBox="0 0 32 32">
<path d="M11.902 11.151c-0.637 0.506 0.147 1.976-0.522 2.531-0.392 0.327-0.914 0-1.225 0.376-0.212 0.245-0.114 0.767-0.049 1.192 0.278 1.91-1.339 3.396-1.453 3.51-0.131 0.114-0.522 0.473-0.718 0.375-0.18-0.098-0.082-0.571-0.082-0.718 0.392-3.984-0.31-6.106-2.041-7.673-0.131-0.131-0.473-0.522-0.392-0.62 0.278-0.343 1.486-0.245 1.959-0.245 5.845 0.065 6.318-1.388 8.114-5.012 0.065-0.131 0.31-0.686 0.571-0.653 0.196 0.016 0.31 0.31 0.343 0.392 0.327 0.816 2.727 4.424 5.322 4.963 1.159 0.245 3.641 0.131 3.771 0.131 0.343-0.016 0.947-0.049 1.029 0.18 0.098 0.261-0.555 0.735-0.849 0.963-1.388 1.11-2.073 3.086-2.155 4.392-0.163 2.4 1.6 5.012 2.563 5.829 0.131 0.114 0.604 0.49 0.506 0.686-0.082 0.212-0.702 0.131-0.865 0.114-0.8-0.082-5.127-0.359-7.020 1.437-0.751 0.702-1.845 2.4-2.253 3.706-0.049 0.18-0.229 0.767-0.506 0.784-0.261 0.016-0.473-0.539-0.571-0.784-0.702-1.649-2.531-3.592-4.327-4.392-0.604-0.261-1.241-0.424-1.257-0.718 0-0.212 0.294-0.245 1.11-0.833 0.555-0.408 0.8-0.669 1.127-0.604 0.196 0.033 0.294 0.163 0.392 0.261 0.571 0.588 1.486 0.98 2.090 0.996 0.751 0.016 0.751-0.555 1.584-0.637 1.012-0.098 1.42 0.718 1.992 0.473 0.637-0.261 0.229-1.306 1.029-2.090s2.057-0.278 2.318-0.669c0.131-0.212-0.408-1.029-0.604-2.024-0.065-0.327-0.245-1.306 0.196-2.237 0.261-0.555 1.012-1.698 1.29-2.269 0.033-0.065 0.098-0.212 0.049-0.294-0.082-0.114-0.327-0.082-0.408-0.082-0.065 0.016-1.976 0.245-2.955-0.261-0.702-0.359-1.453-1.388-1.698-1.91-0.033-0.082-0.163-0.359-0.343-0.359-0.18-0.016-0.327 0.212-0.392 0.278-0.506 0.702-2.139 1.42-3.478 1.469-0.751 0.049-0.931-0.163-1.192 0.049zM6.776 22.661c-0.131 0.098-0.555 0.375-0.816 0.229-0.229-0.131-0.229-0.457-0.016-0.702 0.686-0.865 4.229-3.429 5.698-5.045 0.082-0.082 0.555-0.62 1.241-1.306 0.196-0.196 0.359-0.359 0.604-0.604 0.653-0.62 1.208-1.078 1.584-1.388 0.408-0.327 0.62-0.49 0.931-0.669 0.278-0.163 0.539-0.278 0.767-0.376 0 0 0.131-0.049 0.245-0.082 0.408-0.131 1.567-0.245 2.139 0.18 0.718 0.539 0.212 2.531-0.718 3.412-1.273 1.192-1.698 0.865-4.767 2.482-0.539 0.278-5.437 2.906-6.89 3.869z"></path>
</svg>
