<!-- Generated by IcoMoon.io -->
<svg version="1.1" xmlns="http://www.w3.org/2000/svg" width="32" height="32" viewBox="0 0 32 32">
<path d="M19.951 12.539l-13.322 2.776 1.453 2.367 0.784 1.322 0.931 1.453 1.584 2.645 8.571-10.563zM24.963 4.751c-1.322-0.669-2.906-1.061-4.62-1.061s-3.559 0.245-5.404 0.784-3.69 1.322-5.535 2.514c-1.453 0.931-2.629 1.976-3.69 3.037-1.061 1.192-1.992 2.237-2.776 3.429 0.653-0.784 1.322-1.584 2.106-2.237 0.8-0.653 1.714-1.322 2.645-1.976 1.584-0.914 3.167-1.714 4.882-2.237 1.584-0.522 3.167-0.653 4.751-0.653 1.453 0 2.906 0.392 4.098 0.931s2.253 1.453 2.906 2.514c0.669 1.045 1.061 2.367 1.061 3.69s-0.408 2.645-0.931 4.098c-0.669 1.453-1.453 2.776-2.645 4.098-1.061 1.322-2.514 2.498-4.098 3.559-1.453 1.045-2.906 1.714-4.49 2.237s-3.037 0.784-4.49 0.784c1.861 0.131 3.69 0.016 5.812-0.522s4.098-1.322 6.073-2.645c1.845-1.175 3.298-2.498 4.62-3.951 1.322-1.584 2.253-3.037 2.906-4.62 0.669-1.584 0.931-3.167 0.931-4.62s-0.408-2.906-1.192-4.098c-0.8-1.322-1.861-2.253-2.922-3.053z"></path>
</svg>
