<!-- Generated by IcoMoon.io -->
<svg version="1.1" xmlns="http://www.w3.org/2000/svg" width="32" height="32" viewBox="0 0 32 32">
<path d="M22.465 22.922c-0.392-0.898-0.653-1.812-0.653-2.465s0.392-1.29 1.159-1.682c0.653-0.392 1.943-0.653 3.755-0.784-1.682-0.522-2.841-1.159-3.494-1.943-0.522-0.784-0.653-1.812-0.392-2.971s0.898-2.58 2.073-4.131c1.159-1.551 2.58-3.363 4.131-5.437-2.073 1.551-3.886 2.841-5.437 3.886-1.682 1.029-3.102 1.682-4.261 1.943-1.29 0.261-2.335 0.131-3.102-0.522-0.898-0.653-1.551-1.812-1.943-3.624-0.131 1.682-0.392 3.102-0.784 3.886s-0.898 1.29-1.551 1.42c-0.653 0.131-1.42 0-2.335-0.392-0.898-0.392-1.943-0.898-2.971-1.551 0.653 1.029 1.159 2.073 1.551 2.971s0.522 1.682 0.392 2.335-0.653 1.29-1.42 1.682c-0.784 0.522-2.073 0.784-3.755 0.898 1.682 0.522 2.841 0.898 3.494 1.551 0.653 0.522 1.029 1.29 0.784 2.204-0.261 0.898-0.653 1.943-1.551 3.233-0.784 1.159-1.943 2.71-3.233 4.522 1.812-1.29 3.363-2.335 4.653-3.102 1.29-0.784 2.58-1.029 3.494-1.159 0.898-0.131 1.812 0.261 2.465 1.029 0.653 0.784 1.29 1.943 1.682 3.755 0.131-1.682 0.522-2.971 1.029-3.755 0.522-0.784 1.159-1.159 1.943-1.29s1.551 0 2.58 0.522c1.029 0.392 2.073 1.029 3.102 1.682-0.62-1.159-1.143-2.073-1.404-2.71z"></path>
</svg>
