<!-- Generated by IcoMoon.io -->
<svg version="1.1" xmlns="http://www.w3.org/2000/svg" width="32" height="32" viewBox="0 0 32 32">
<path d="M17.11 4.571c0.359 0.049 0.555 0.082 0.931 0.147 0.424 0.082 2.171 0.392 3.265 0.653 1.551 0.343 2.988 0.653 4.62 1.078 0.506 0.147 1.045 0.196 1.551 0.343 1.682 0.425 1.829 0.506 1.371 2.335-0.082 0.425-0.163 0.767-0.261 1.159-0.049 0.392-0.147 0.898-0.229 1.29-0.114 0.62-0.424 2.645-0.702 3.935-0.196 0.931-0.473 1.861-0.735 2.792-0.114 0.343-0.278 0.62-0.653 0.555-0.261-0.033-0.506-0.261-0.62-0.392-0.457-0.539-0.865-1.29-1.322-1.747-0.702-0.767-1.355-0.555-2.253-0.229-0.343 0.114-0.588 0.196-0.963 0.163-0.278-0.033-0.588-0.539-0.784-0.816-0.784-1.241-1.633-2.416-2.449-3.624-0.555-0.849-1.094-1.714-1.714-2.498-0.392-0.506-0.816-1.094-0.784-1.437 0.033-0.163 0.457-0.653 0.555-0.735 0.653-0.555 0.473-1.045 0.278-1.665-0.082-0.31-0.392-0.735-0.229-1.012 0.245-0.408 0.751-0.294 1.127-0.294zM14.008 20.833c0.033 0.229 0 0.31-0.278 0.62s-0.555 0.62-0.898 0.898c-0.784 0.653-1.518 0.506-1.992-0.424-0.669-1.322-1.159-2.531-1.665-3.804-0.588-1.584-1.273-3.102-1.91-4.669-0.425-1.045-0.555-1.486-1.012-2.612-0.033-0.082-0.31-0.767 0.033-1.094 0.735-0.702 1.29-1.012 2.106 0.049 0.343 0.457 0.555 0.865 0.816 1.355 0.767 1.469 1.633 2.873 2.335 4.359 0.555 1.175 1.127 2.367 1.714 3.51 0.327 0.604 0.522 1.192 0.751 1.812zM2.971 20.473c0-1.976 0-3.935 0-5.91 0-0.196-0.163-1.796 0.229-1.796 0.261 0 0.539 1.273 0.653 1.665 0.473 1.714 0.767 3.38 1.208 4.98 0.457 1.796 0.931 3.608 1.486 5.404 0.229 0.767-0.049 1.486-0.816 1.894-0.392 0.196-0.784 0.392-1.175 0.555-0.963 0.457-1.6 0.082-1.6-0.931 0.016-1.927 0.016-3.886 0.016-5.861zM11.51 8.898c0.033-0.229 0.082-0.278 0.506-0.473 0.359-0.163 0.653-0.147 0.898 0.049 0.392 0.31 0.702 0.735 0.98 1.127 0.849 1.322 1.682 2.612 2.531 3.935 0.784 1.241 1.551 2.498 2.188 3.853 0.196 0.457 0.196 0.702-0.147 1.078-0.963 1.012-1.208 0.931-1.976-0.31-0.98-1.6-1.747-3.314-2.645-4.931-0.588-1.012-1.127-2.057-1.682-3.069-0.261-0.343-0.49-0.833-0.653-1.257z"></path>
</svg>
