<!-- Generated by IcoMoon.io -->
<svg version="1.1" xmlns="http://www.w3.org/2000/svg" width="32" height="32" viewBox="0 0 32 32">
<path d="M16.261 6.302l2.335 4.914 4.016-2.71-1.812 4.016 4.261 0.653-2.71 1.42 2.073 1.42c0-0.261 0.131-0.522 0.131-0.784 0.131-0.261 0.131-0.522 0.131-0.784l2.71-1.551-3.102-1.159c-0.261-0.653-0.522-1.29-0.898-1.812l1.159-3.755-3.755 1.682c-0.261-0.131-0.653-0.261-1.029-0.392-0.392 0-0.784-0.131-1.159-0.131l-3.363-4.392-0.522 5.045c-0.131 0-0.261 0.131-0.522 0.261s-0.392 0.261-0.522 0.392l2.335 1.682 0.245-4.016zM14.971 25.045l-0.898-4.261-2.335 1.682 1.159-2.841-3.624 0.261 2.71-1.943-3.755-1.29 2.073-0.392-1.682-1.159c0 0.131 0 0.261 0 0.261v0.131l-3.363 1.159 3.233 0.898c0.131 0.131 0.131 0.392 0.131 0.522s0.131 0.392 0.131 0.522l-4.131 3.494 5.306-1.29c0.131 0.261 0.261 0.392 0.392 0.522s0.261 0.261 0.392 0.392l-0.784 3.233 2.841-1.812 0.898 0.261 0.898 5.698 2.335-5.698c0.392-0.131 0.784-0.261 1.159-0.392 0.392-0.131 0.653-0.261 1.029-0.522l1.029 0.261-3.363-2.335-1.78 4.637zM3.592 7.2l12.408 9.437 12.408 6.073-10.857-8.539-13.959-6.971z"></path>
</svg>
