<!-- Generated by IcoMoon.io -->
<svg version="1.1" xmlns="http://www.w3.org/2000/svg" width="32" height="32" viewBox="0 0 32 32">
<path d="M8.31 1.927c0.016 0.016 0.131 0.278 0.327 0.751 0.865 2.090 1.437 3.576 1.714 4.457l0.033 0.131-0.065 0.163c-0.049 0.065-0.131 0.229-0.261 0.49-0.392 0.653-0.702 1.322-0.931 2.008-0.131 0.359-0.245 0.604-0.359 0.718-0.212 0.212-0.718 0.555-1.518 0.996-0.8 0.425-1.665 0.849-2.612 1.257-0.245 0.082-0.359 0.147-0.392 0.163 0 0.049 0.359 0.18 1.061 0.425 0.898 0.294 1.616 0.571 2.139 0.816 0.718 0.327 1.192 0.653 1.453 0.963 0.114 0.131 0.196 0.31 0.261 0.555 0.278 0.784 0.653 1.518 1.127 2.237 0.18 0.261 0.261 0.392 0.261 0.424 0 0.114-0.441 1.29-1.322 3.559-0.555 1.437-0.833 2.171-0.833 2.204 0.016 0 0.751-0.588 2.204-1.747 1.159-0.931 1.894-1.518 2.204-1.78l0.131-0.065 0.425 0.163c0.604 0.294 1.094 0.506 1.453 0.62 1.469 0.473 2.955 0.49 4.457 0.065 0.473-0.131 1.045-0.343 1.714-0.653 0.327-0.147 0.49-0.229 0.522-0.229 0.016 0 0.588 0.441 1.714 1.322 1.894 1.535 2.857 2.286 2.873 2.286 0.016-0.016-0.212-0.604-0.686-1.763-0.751-1.943-1.192-3.069-1.322-3.396l-0.229-0.653 0.294-0.49c0.196-0.327 0.327-0.555 0.424-0.718 0.245-0.457 0.457-0.963 0.653-1.551 0.049-0.082 0.098-0.163 0.163-0.229 0.343-0.359 1.224-0.833 2.612-1.42 0.424-0.196 0.898-0.376 1.388-0.555l0.996-0.425-0.294-0.131c-0.8-0.327-1.257-0.522-1.355-0.62-1.894-1.192-2.971-1.829-3.2-1.943-0.065-0.016-0.196-0.245-0.392-0.686-0.457-0.882-0.816-1.567-1.094-2.041l-0.163-0.294c0.408-1.322 0.751-2.253 0.996-2.808l1.192-2.612c-0.278 0.196-0.441 0.31-0.49 0.359-0.424 0.392-0.686 0.588-0.784 0.62-0.016 0-0.49 0.359-1.388 1.061l-1.616 1.322-0.261-0.163c-0.196-0.131-0.522-0.31-0.996-0.555-1.502-0.718-3.118-0.914-4.816-0.62-0.996 0.196-1.91 0.539-2.743 1.029-0.261 0.147-0.441 0.18-0.555 0.098-0.408-0.278-1.665-1.273-3.755-2.971l-0.359-0.294v0.147zM17.535 4.669c0.245 0.049 0.441 0.114 0.62 0.229 0.131 0.114 0.212 0.359 0.261 0.751 0.049 0.327 0.065 2.678 0.065 7.086 0 4.62-0.049 7.020-0.163 7.216s-0.245 0.343-0.424 0.457c-0.18 0.082-0.359 0.131-0.555 0.131-0.212 0-0.408-0.049-0.588-0.131-0.212-0.131-0.359-0.278-0.424-0.457-0.016-0.065-0.049-0.147-0.065-0.261-0.049-0.408-0.065-2.776-0.065-7.086 0-4.327 0.016-6.71 0.065-7.118 0.016-0.196 0.114-0.359 0.261-0.522 0.261-0.278 0.604-0.375 1.012-0.294zM14.792 6.286c0.18 0.049 0.327 0.131 0.457 0.261 0.114 0.114 0.18 0.457 0.229 1.029v9.127c-0.016 1.159-0.049 1.829-0.098 1.976s-0.147 0.278-0.327 0.392c-0.327 0.196-0.653 0.196-0.996 0-0.131-0.082-0.245-0.196-0.327-0.327-0.114-0.245-0.163-2.237-0.163-6.008 0-3.102 0.033-4.996 0.098-5.698 0.016-0.212 0.098-0.375 0.229-0.49 0.229-0.261 0.522-0.343 0.898-0.261zM20.441 6.286c0.131 0.016 0.261 0.082 0.392 0.196 0.147 0.114 0.245 0.375 0.294 0.816 0.016 0.196 0.033 1.861 0.033 5.012s-0.016 4.963-0.033 5.469c-0.016 0.62-0.098 0.996-0.229 1.127-0.327 0.343-0.702 0.408-1.127 0.196-0.18-0.082-0.294-0.212-0.359-0.359-0.065-0.131-0.114-0.8-0.163-2.008v-8.033c0.049-1.208 0.098-1.861 0.163-1.976 0.212-0.408 0.555-0.571 1.029-0.441zM11.902 9.257c0.359 0.065 0.62 0.245 0.784 0.522 0.082 0.18 0.131 0.457 0.131 0.865 0 1.012 0.016 1.878 0.033 2.58 0.065 0.963 0.049 1.747-0.065 2.335-0.016 0.196-0.114 0.376-0.294 0.555-0.278 0.261-0.588 0.375-0.898 0.359-0.343-0.016-0.653-0.18-0.898-0.457-0.065-0.082-0.114-0.278-0.163-0.588-0.065-0.62-0.114-1.551-0.131-2.776-0.016-1.257-0.016-2.041 0.033-2.367 0.049-0.278 0.163-0.506 0.359-0.686 0.327-0.327 0.702-0.441 1.11-0.343zM23.38 9.29c0.196 0.049 0.359 0.147 0.522 0.294 0.18 0.147 0.278 0.588 0.294 1.29 0.016 0.359 0.016 1.192 0 2.482 0 1.322-0.016 2.041-0.033 2.171-0.016 0.196-0.114 0.376-0.294 0.555-0.424 0.424-0.898 0.522-1.42 0.261-0.245-0.114-0.392-0.245-0.49-0.425-0.114-0.196-0.18-1.094-0.196-2.71-0.049-1.535-0.016-2.531 0.098-3.004 0.114-0.539 0.424-0.865 0.931-0.963 0.196-0.033 0.392-0.016 0.588 0.049z"></path>
</svg>
