<!-- Generated by IcoMoon.io -->
<svg version="1.1" xmlns="http://www.w3.org/2000/svg" width="32" height="32" viewBox="0 0 32 32">
<path d="M16 29.061c1.829 0 3.527-0.392 5.094-1.045s3.004-1.567 4.18-2.743c1.175-1.175 2.090-2.612 2.743-4.18s1.045-3.265 1.045-5.094-0.392-3.527-1.045-5.094c-0.653-1.567-1.567-3.004-2.743-4.18s-2.612-2.090-4.18-2.743-3.265-1.045-5.094-1.045-3.527 0.392-5.094 1.045c-1.567 0.653-3.004 1.567-4.18 2.743s-2.090 2.612-2.743 4.18-1.045 3.265-1.045 5.094 0.392 3.527 1.045 5.094 1.567 3.004 2.743 4.18c1.175 1.175 2.612 2.090 4.18 2.743s3.265 1.045 5.094 1.045zM13.127 26.841v0 0 0zM4.767 16c0-1.698 0.392-3.396 1.045-4.833s1.698-2.743 3.004-3.788h0.131c1.175 0.131 2.22 0.392 3.265 0.914s1.829 1.175 2.612 2.090 1.306 1.959 1.698 3.004 0.392 2.22 0.392 3.396c-0.131 1.045-0.392 2.090-0.784 3.004s-1.045 1.698-1.698 2.482c-0.653 0.653-1.567 1.306-2.482 1.698s-1.959 0.653-3.004 0.784c-1.306-1.045-2.22-2.351-3.004-3.788-0.784-1.567-1.176-3.265-1.176-4.963zM16 4.767c1.567 0 3.004 0.261 4.441 0.914s2.612 1.437 3.527 2.351c1.045 1.045 1.829 2.22 2.351 3.527s0.914 2.873 0.914 4.441-0.261 3.004-0.914 4.441-1.437 2.612-2.351 3.527c-1.045 1.045-2.22 1.829-3.527 2.351-1.437 0.653-2.873 0.914-4.441 0.914h-0.261c0.131-0.131 0.392-0.261 0.522-0.392s0.392-0.261 0.522-0.392l-1.045-1.306c0.392-0.261 0.784-0.653 1.175-1.045s0.653-0.784 1.045-1.175l1.306 0.914c0.392-0.522 0.653-1.045 0.914-1.567s0.522-1.045 0.653-1.567l-1.437-0.522c0.131-0.522 0.261-1.045 0.392-1.567s0.131-1.045 0.261-1.567l1.698 0.131v-0.131c0-0.131 0-0.392 0-0.522 0-0.261 0-0.392 0-0.522 0-0.392 0-0.784 0-1.175s-0.131-0.784-0.131-1.175l-1.698 0.261c0-0.522-0.131-1.045-0.392-1.567-0.131-0.522-0.392-1.045-0.522-1.437l1.437-0.653c-0.261-0.522-0.522-1.045-0.914-1.567-0.261-0.522-0.653-0.914-1.045-1.437l-1.175 1.045c-0.392-0.392-0.653-0.784-1.045-1.175s-0.784-0.653-1.175-0.914l0.914-1.437z"></path>
</svg>
