<!-- Generated by IcoMoon.io -->
<svg version="1.1" xmlns="http://www.w3.org/2000/svg" width="32" height="32" viewBox="0 0 32 32">
<path d="M3.037 28.375c0.163-0.082 1.29-0.653 3.347-1.698 3.494-1.812 5.682-2.857 6.563-3.135 0.898-0.294 1.91-0.424 3.037-0.408 0.408 0 0.735 0.016 1.012 0.033 0.016-0.131 0.049-0.784 0.098-1.992 0.049-1.078 0.082-1.633 0.131-1.682 0.016-0.016 0.114-0.016 0.278 0.033 0.31 0.082 0.604 0.131 0.882 0.131 0.163 0.016 0.278 0.049 0.31 0.065 0.147 0.082 0.669 0.571 1.551 1.453l1.11 1.078 1.078-0.343c2.090-0.604 4.049-1.061 5.91-1.355 0.457-0.082 0.702-0.131 0.718-0.131l-0.784-0.343c-2.090-0.669-3.527-1.208-4.327-1.616-0.702-0.359-1.11-0.637-1.257-0.816-0.082-0.065-0.065-0.196 0.065-0.408 0.147-0.294 0.245-0.588 0.31-0.882 0.098-0.408 0.163-0.882 0.196-1.453 0.016-0.506 0.098-0.947 0.229-1.322 0.294-0.882 1.078-2.302 2.367-4.261 0.588-0.882 0.882-1.339 0.849-1.339-0.016-0.016-0.343 0.147-0.947 0.49-2.302 1.29-3.967 2.008-5.029 2.171-0.359 0.049-0.653 0.049-0.882 0-0.522-0.131-0.98-0.18-1.355-0.163-0.555 0.049-1.029 0.131-1.453 0.245-0.147 0.065-0.229 0.098-0.245 0.098-0.065 0-0.163-0.163-0.31-0.473-0.278-0.522-0.473-1.078-0.604-1.682-0.343-1.437-0.588-3.004-0.751-4.735-0.016-0.196-0.049-0.294-0.065-0.31 0-0.016-0.114 0.31-0.343 0.98-0.702 1.959-1.584 3.918-2.661 5.878l-0.278 0.539 1.143 1.682 1.143 1.649v0.702c0 0.457-0.016 0.702-0.033 0.702l-1.763-0.065c-1.175-0.016-1.78-0.033-1.78-0.049-0.016-0.016-0.033 0.147-0.049 0.49 0 0.424-0.049 0.784-0.131 1.11-0.588 2.302-2.743 5.682-6.482 10.139-0.522 0.653-0.816 0.996-0.849 1.045h0.049zM18.318 18.433c-1.257-0.147-2.171-0.8-2.743-1.959-0.425-0.8-0.473-1.649-0.163-2.531 0.441-1.224 1.322-1.976 2.629-2.237 0.147-0.016 0.375-0.033 0.669-0.033 0.278 0 0.49 0.016 0.637 0.033 0.669 0.163 1.257 0.49 1.763 0.98 0.278 0.245 0.49 0.539 0.637 0.849 0.571 1.143 0.49 2.269-0.245 3.412-0.571 0.849-1.371 1.322-2.433 1.453-0.278 0.049-0.522 0.049-0.751 0.033z"></path>
</svg>
