<!-- Generated by IcoMoon.io -->
<svg version="1.1" xmlns="http://www.w3.org/2000/svg" width="32" height="32" viewBox="0 0 32 32">
<path d="M26.514 18.384c-0.751-0.604-1.306-1.175-1.665-1.714s-0.555-1.061-0.588-1.584c0-0.996 0.751-2.106 2.253-3.347l2.547-2.122-3.249 0.604c-0.588 0.065-1.061 0.114-1.469 0.163-0.392 0.049-0.751 0.065-1.078 0.065-0.392 0-0.718-0.033-1.012-0.114s-0.555-0.245-0.8-0.522-0.49-0.653-0.735-1.143c-0.245-0.49-0.506-1.159-0.784-1.992l-0.735-2.122-0.865 2.090c-0.343 0.751-0.653 1.355-0.931 1.796-0.278 0.457-0.571 0.8-0.865 1.045s-0.62 0.408-0.947 0.506c-0.327 0.082-0.686 0.131-1.078 0.131-0.359 0-0.767-0.033-1.192-0.098s-0.996-0.163-1.682-0.294l-3.184-0.588 2.449 2.122c1.045 0.963 1.584 2.041 1.584 3.216l-9.502 0.669v2.971l9.339-2.384c-0.196 0.702-0.571 1.453-1.127 2.253l-8.212 2.971v2.71l2.024 1.355 4.898-3.641 0.637-0.163c0.8-0.18 1.535-0.31 2.204-0.441s1.29-0.18 1.845-0.18l-6.449 6.792h4.865l3.51-6.318c0.327 0.196 0.637 0.473 0.931 0.816 0.294 0.359 0.588 0.849 0.865 1.469l0.865 2.090 0.735-2.122c0.294-0.833 0.571-1.502 0.816-1.976 0.245-0.49 0.49-0.849 0.718-1.094s0.506-0.408 0.784-0.473c0.294-0.065 0.62-0.098 1.012-0.098 0.327 0 0.686 0.016 1.078 0.033s0.882 0.082 1.469 0.196l3.249 0.555-2.531-2.090zM23.265 17.927c-1.175 0-2.090 0.261-2.727 0.784s-1.159 1.29-1.567 2.269c-0.229-0.327-0.49-0.604-0.735-0.849-0.261-0.245-0.539-0.457-0.833-0.62l2.514-4.539-3.804 4.065c-0.229-0.049-0.473-0.082-0.718-0.131s-0.506-0.065-0.751-0.065c-0.229 0-0.49 0.016-0.735 0.049-0.261 0.033-0.522 0.065-0.8 0.082l4.212-3.151-3.575 1.29c0.229-0.588 0.408-1.192 0.522-1.829l4.441-1.192-4.441 0.359c0-0.473-0.065-0.931-0.196-1.355s-0.294-0.833-0.522-1.225c0.327 0.049 0.49 0.065 0.49 0.065h0.457c1.11 0 2.025-0.229 2.71-0.686s1.29-1.127 1.796-1.976c0.212 0.49 0.457 0.931 0.718 1.306s0.588 0.702 0.931 0.963 0.767 0.457 1.224 0.588 1.029 0.163 1.698 0.147c-0.702 0.996-1.061 1.943-1.061 2.873 0.049 0.49 0.147 0.963 0.294 1.42s0.392 0.931 0.735 1.42h-0.278z"></path>
</svg>
