<!-- Generated by IcoMoon.io -->
<svg version="1.1" xmlns="http://www.w3.org/2000/svg" width="32" height="32" viewBox="0 0 32 32">
<path d="M14.318 12.163l-10.792-5.192 7.673 8.441-7.020 3.641 7.151 1.175-1.437 8.833 6.629-6.759 6.237 6.237-1.306-8.441 7.020-1.175-6.237-3.771 4.424-6.237-7.412 1.943-2.857-7.935-2.073 9.241zM12.882 22.825l0.784-4.425-3.641-0.522 4.033-2.204-3.118-3.38 4.555 2.204 1.175-4.816 1.306 3.51 3.902-1.045-2.498 3.527 3.51 2.073-3.771 0.653 0.653 4.294-3.38-3.249-3.51 3.38z"></path>
</svg>
