<!-- Generated by IcoMoon.io -->
<svg version="1.1" xmlns="http://www.w3.org/2000/svg" width="32" height="32" viewBox="0 0 32 32">
<path d="M27.902 21.045c0.653-1.551 1.029-3.233 1.029-5.045s-0.392-3.494-1.029-5.045c-0.653-1.551-1.551-2.971-2.71-4.131s-2.58-2.073-4.131-2.841c-1.551-0.653-3.233-1.029-5.045-1.029s-3.494 0.392-5.045 1.029c-1.551 0.653-2.971 1.682-4.131 2.841s-2.073 2.58-2.71 4.131-1.029 3.233-1.029 5.045c0 1.682 0.392 3.363 1.029 5.045 0.653 1.551 1.551 2.971 2.71 4.131s2.58 2.073 4.131 2.841c1.551 0.653 3.233 1.029 5.045 1.029s3.494-0.392 5.045-1.029c1.551-0.653 2.971-1.682 4.131-2.841s2.057-2.58 2.71-4.131z"></path>
</svg>
