<!-- Generated by IcoMoon.io -->
<svg version="1.1" xmlns="http://www.w3.org/2000/svg" width="32" height="32" viewBox="0 0 32 32">
<path d="M17.747 13.42h-3.331l-0.98 1.763h5.29l-0.98-1.763zM13.225 12.702l-1.698-2.808h-1.959l2.612 4.571 1.045-1.763zM22.645 9.829h-2.024l-1.633 2.808 1.045 1.763 2.612-4.571zM14.465 11.984h3.331l1.633-2.873-1.633-2.873h-3.331l-1.633 2.873 1.633 2.873zM17.094 7.412l0.98 1.698-0.98 1.698h-1.959l-0.98-1.698 0.98-1.698h1.959zM9.567 8.392h1.959l1.633-2.808-0.98-1.763-2.612 4.571zM18.988 5.584l1.633 2.808h2.024l-2.612-4.571-1.045 1.763zM14.465 4.865h3.331l0.98-1.763h-5.29l0.98 1.763zM16.261 18.645c-1.224 0-2.4-0.131-3.559-0.408-1.094-0.278-2.188-0.62-3.282-1.094 0.963 0.686 1.78 1.437 2.596 2.318 0.751 0.816 1.437 1.78 2.057 2.808 0.555 1.029 1.029 2.057 1.437 3.216 0.408 1.094 0.62 2.318 0.751 3.494 0.131-1.159 0.343-2.318 0.751-3.494 0.343-1.159 0.882-2.253 1.437-3.216 0.62-1.029 1.306-1.91 2.057-2.808 0.816-0.882 1.649-1.649 2.596-2.318-1.029 0.473-2.122 0.816-3.282 1.094-1.175 0.212-2.335 0.343-3.559 0.408z"></path>
</svg>
