<!-- Generated by IcoMoon.io -->
<svg version="1.1" xmlns="http://www.w3.org/2000/svg" width="32" height="32" viewBox="0 0 32 32">
<path d="M19.265 24.555h-6.661l-1.959 3.527h10.58l-1.959-3.527zM10.253 23.118l-3.396-5.616h-3.918l5.224 9.143 2.090-3.527zM29.061 17.371h-4.049l-3.265 5.616 2.090 3.527 5.224-9.143zM12.735 21.682h6.661l3.265-5.747-3.265-5.747h-6.661l-3.265 5.747 3.265 5.747zM17.959 12.539l1.959 3.396-1.959 3.396h-3.918l-1.959-3.396 1.959-3.396h3.918zM2.939 14.498h3.918l3.265-5.616-1.959-3.527-5.224 9.143zM21.747 8.882l3.265 5.616h4.049l-5.224-9.143-2.090 3.527zM12.735 7.445h6.661l1.959-3.527h-10.58l1.959 3.527z"></path>
</svg>
