<!-- Generated by IcoMoon.io -->
<svg version="1.1" xmlns="http://www.w3.org/2000/svg" width="32" height="32" viewBox="0 0 32 32">
<path d="M5.404 9.567l-0.212-0.065c-0.147-0.065-0.294-0.147-0.441-0.212-0.212-0.147-0.359-0.294-0.571-0.506s-0.441-0.506-0.653-0.865v0.653c0.065 0.359 0.147 0.718 0.359 1.012 0.147 0.294 0.359 0.571 0.571 0.784s0.441 0.441 0.653 0.571c0.212 0.147 0.441 0.294 0.653 0.359 0.294 0.147 0.441 0.212 0.506 0.212l0.212 0.065 0.147 0.065v0.147l-0.147 0.147-0.359 0.147c-0.147 0-0.294 0-0.441 0s-0.359 0-0.506-0.065c0.065 0.065 0.147 0.147 0.359 0.359 0.212 0.147 0.359 0.294 0.571 0.441 0.147 0.147 0.359 0.294 0.718 0.506 0.212 0.147 0.571 0.294 0.865 0.441s0.653 0.294 1.012 0.359c0.294 0.065 0.571 0.147 0.931 0.212s0.571 0.065 0.718 0.065c0.212 0 0.294 0 0.359-0.065v0c0 0 0.049 0 0.065 0v0c0 0.065 0.147 0.065 0.359 0.065 0.147 0 0.441 0 0.718-0.065 0.359-0.065 0.718-0.147 0.931-0.212 0.359-0.065 0.718-0.212 1.012-0.359 0.359-0.147 0.653-0.294 0.865-0.441 0.359-0.212 0.571-0.359 0.718-0.506 0.212-0.147 0.359-0.294 0.571-0.441 0.212-0.212 0.359-0.294 0.359-0.359-0.212 0.065-0.359 0.065-0.506 0.065s-0.294 0.033-0.441 0c-0.098-0.016-0.359-0.147-0.359-0.147s-0.131-0.098-0.147-0.147c0-0.033 0.065-0.147 0.065-0.147l0.147-0.065c0 0 0.163-0.049 0.212-0.065 0.065-0.016 0.212-0.065 0.506-0.212 0.212-0.147 0.441-0.212 0.653-0.359s0.506-0.359 0.653-0.571c0.212-0.212 0.441-0.506 0.571-0.784 0.147-0.294 0.294-0.653 0.359-1.078v-0.669c-0.212 0.359-0.441 0.571-0.653 0.865-0.212 0.212-0.359 0.359-0.571 0.506-0.147 0.065-0.294 0.147-0.441 0.212l-0.212 0.065c0 0-0.18-0.016-0.212-0.065s0-0.212 0-0.212c0.065-0.212 0.196-0.359 0.212-0.441 0.016-0.065 0.147-0.212 0.147-0.212s0.065-0.065 0.147-0.212c0.294-0.359 0.441-0.784 0.441-1.306 0.065-0.506 0-1.012-0.147-1.502-0.147-0.359-0.294-0.653-0.506-0.931-0.212-0.212-0.441-0.506-0.784-0.718-0.294-0.212-0.653-0.359-0.931-0.506-0.294-0.147-0.653-0.294-1.012-0.359h-0.065c0.359 0.212 0.653 0.441 0.865 0.718 0.212 0.294 0.359 0.506 0.359 0.784 0.065 0.294 0.065 0.506 0.065 0.784-0.065 0.294-0.147 0.571-0.212 0.718-0.212 0.571-0.571 1.078-1.159 1.649 0.359 0.653 0.571 1.224 0.653 1.731 0.065 0.571 0 1.078-0.147 1.502-0.147 0.441-0.359 0.865-0.653 1.225-0.278 0.359-0.653 0.718-0.931 0.931-0.294 0.294-0.571 0.506-0.865 0.653s-0.506 0.294-0.571 0.294h-0.147c-0.065 0-0.294-0.147-0.571-0.294-0.294-0.147-0.571-0.359-0.865-0.653-0.294-0.212-0.571-0.571-0.931-0.931-0.294-0.359-0.506-0.784-0.653-1.224s-0.212-0.931-0.147-1.502c0.065-0.506 0.294-1.159 0.653-1.796-0.506-0.571-0.931-1.078-1.159-1.649-0.065-0.212-0.147-0.441-0.212-0.718-0.065-0.294 0-0.506 0.065-0.784 0.065-0.212 0.212-0.506 0.359-0.784 0.212-0.294 0.441-0.506 0.865-0.718h-0.147c-0.294 0.147-0.653 0.212-1.012 0.359-0.294 0.147-0.571 0.294-0.931 0.506-0.294 0.212-0.571 0.441-0.784 0.718-0.212 0.294-0.359 0.571-0.506 0.931-0.147 0.506-0.212 1.012-0.147 1.502 0.065 0.506 0.212 0.931 0.441 1.306 0 0 0.065 0.065 0.147 0.212l0.147 0.212c0.065 0.065 0.147 0.212 0.294 0.441v0.212l-0.196 0.212zM10.155 6.694c0.147 0.065 0.359 0.065 0.571 0.065s0.441 0 0.571-0.065c0.147-0.065 0.359-0.212 0.441-0.294 0.147-0.147 0.212-0.294 0.294-0.441 0.065-0.147 0.147-0.359 0.147-0.571s-0.065-0.359-0.147-0.571c-0.065-0.147-0.147-0.294-0.294-0.441s-0.294-0.212-0.441-0.294c-0.212-0.065-0.359-0.065-0.571-0.065s-0.359 0-0.571 0.065c-0.147 0.065-0.359 0.212-0.441 0.294-0.147 0.147-0.212 0.294-0.294 0.441-0.065 0.147-0.147 0.359-0.147 0.571s0.065 0.359 0.147 0.571c0.065 0.147 0.147 0.359 0.294 0.441 0.114 0.082 0.294 0.212 0.441 0.294zM16.327 24.147l-0.212-0.065c-0.147-0.065-0.294-0.147-0.441-0.212-0.212-0.147-0.359-0.294-0.571-0.506s-0.441-0.506-0.653-0.865v0.653c0.065 0.359 0.147 0.718 0.359 1.012 0.147 0.294 0.359 0.571 0.571 0.784s0.441 0.441 0.653 0.571c0.212 0.147 0.441 0.294 0.653 0.359 0.294 0.147 0.441 0.212 0.506 0.212l0.212 0.065 0.147 0.065v0.147l-0.147 0.147-0.359 0.147c-0.147 0-0.294 0-0.441 0s-0.359 0-0.506-0.065c0.065 0.065 0.147 0.147 0.359 0.359 0.212 0.147 0.359 0.294 0.571 0.441 0.147 0.147 0.359 0.294 0.718 0.506 0.212 0.147 0.571 0.294 0.865 0.441s0.653 0.294 1.012 0.359c0.294 0.065 0.571 0.147 0.931 0.212s0.571 0.065 0.718 0.065c0.212 0 0.294 0 0.359-0.065v0h0.065c0 0.065 0.147 0.065 0.359 0.065 0.147 0 0.441 0 0.718-0.065 0.359-0.065 0.718-0.147 0.931-0.212 0.359-0.065 0.718-0.212 1.012-0.359 0.359-0.147 0.653-0.294 0.865-0.441 0.359-0.212 0.571-0.359 0.718-0.506 0.212-0.147 0.359-0.294 0.571-0.441 0.212-0.212 0.359-0.294 0.359-0.359-0.212 0.065-0.359 0.065-0.506 0.065s-0.294 0-0.441 0l-0.359-0.147-0.147-0.147 0.065-0.147 0.147-0.065 0.212-0.065c0.065 0 0.212-0.065 0.506-0.212 0.212-0.147 0.441-0.212 0.653-0.359s0.506-0.359 0.653-0.571c0.212-0.212 0.441-0.506 0.571-0.784 0.147-0.294 0.294-0.653 0.359-1.078v-0.653c-0.212 0.359-0.441 0.571-0.653 0.865-0.212 0.212-0.359 0.359-0.571 0.506-0.147 0.065-0.294 0.147-0.441 0.212l-0.212 0.065-0.212-0.065v-0.212c0.065-0.212 0.212-0.359 0.212-0.441l0.147-0.212c0 0 0.065-0.065 0.147-0.212 0.294-0.359 0.441-0.784 0.441-1.306 0.065-0.506 0-1.012-0.147-1.502-0.147-0.359-0.294-0.653-0.506-0.931-0.212-0.212-0.441-0.506-0.784-0.718-0.294-0.212-0.653-0.359-0.931-0.506-0.294-0.147-0.653-0.294-1.012-0.359h-0.065c0.359 0.212 0.653 0.441 0.865 0.718 0.212 0.294 0.359 0.506 0.359 0.784 0.065 0.294 0.065 0.506 0.065 0.784-0.065 0.294-0.147 0.571-0.212 0.718-0.212 0.571-0.571 1.078-1.159 1.649 0.359 0.653 0.571 1.224 0.653 1.731 0.065 0.571 0 1.078-0.147 1.502-0.147 0.441-0.359 0.865-0.653 1.224s-0.653 0.718-0.931 0.931c-0.294 0.294-0.571 0.506-0.865 0.653s-0.506 0.294-0.571 0.294h-0.147c-0.065 0-0.294-0.147-0.571-0.294-0.294-0.147-0.571-0.359-0.865-0.653-0.294-0.212-0.571-0.571-0.931-0.931-0.294-0.359-0.506-0.784-0.653-1.224s-0.212-0.931-0.147-1.502c0.065-0.506 0.294-1.159 0.653-1.796-0.506-0.571-0.931-1.078-1.159-1.649-0.065-0.212-0.147-0.441-0.212-0.718-0.065-0.294 0-0.506 0.065-0.784 0.065-0.212 0.212-0.506 0.359-0.784 0.212-0.294 0.441-0.506 0.865-0.718h-0.147c-0.294 0.147-0.653 0.212-1.012 0.359-0.294 0.147-0.571 0.294-0.931 0.506-0.294 0.212-0.571 0.441-0.784 0.718-0.212 0.294-0.359 0.571-0.506 0.931-0.147 0.506-0.212 1.012-0.147 1.502 0.065 0.506 0.212 0.931 0.441 1.306 0 0 0.065 0.065 0.147 0.212l0.147 0.212c0.065 0.065 0.147 0.212 0.294 0.441v0.212l-0.196 0.196zM21.078 21.273c0.147 0.065 0.359 0.065 0.571 0.065s0.441 0 0.571-0.065c0.147-0.065 0.359-0.212 0.441-0.294 0.147-0.147 0.212-0.294 0.294-0.441 0.065-0.147 0.147-0.359 0.147-0.571s-0.065-0.359-0.147-0.571c-0.065-0.147-0.147-0.294-0.294-0.441s-0.294-0.212-0.441-0.294c-0.212-0.065-0.359-0.065-0.571-0.065s-0.359 0-0.571 0.065c-0.147 0.065-0.359 0.212-0.441 0.294-0.147 0.147-0.212 0.294-0.294 0.441-0.065 0.147-0.147 0.359-0.147 0.571s0.065 0.359 0.147 0.571c0.065 0.147 0.147 0.359 0.294 0.441 0.147 0.065 0.294 0.212 0.441 0.294z"></path>
</svg>
