<!-- Generated by IcoMoon.io -->
<svg version="1.1" xmlns="http://www.w3.org/2000/svg" width="32" height="32" viewBox="0 0 32 32">
<path d="M16 7.575c-2.351 0-4.571-0.261-6.792-0.784-2.090-0.522-4.18-1.176-6.269-2.090 1.829 1.306 3.396 2.743 4.963 4.441 1.437 1.567 2.743 3.396 3.918 5.355 1.045 1.959 1.959 3.918 2.743 6.139 0.784 2.090 1.175 4.441 1.437 6.661 0.261-2.22 0.653-4.441 1.437-6.661 0.653-2.22 1.698-4.31 2.743-6.139 1.175-1.959 2.482-3.657 3.918-5.355 1.567-1.698 3.135-3.135 4.963-4.441-1.959 0.914-4.049 1.567-6.269 2.090-2.22 0.392-4.441 0.653-6.792 0.784z"></path>
</svg>
